<?xml version="1.0" encoding="UTF-8"?>
<svg version="1.1" xmlns="http://www.w3.org/2000/svg" width="3558" height="1359">
<path d="M0 0 C7.71262256 4.5717029 12.83521151 13.04052216 18.0625 20.125 C19.38701668 21.90179066 20.71254281 23.67782925 22.0390625 25.453125 C22.68262695 26.31486328 23.32619141 27.17660156 23.98925781 28.06445312 C31.62814748 38.26873316 39.66999188 47.77270271 48.43505859 57.02978516 C50.12724567 58.83594442 51.75950958 60.68758776 53.375 62.5625 C57.87539387 67.77406722 62.59573228 72.78703069 67.27490234 77.83740234 C69.64958074 80.40513176 72.01298145 82.9831282 74.375 85.5625 C74.82456055 86.05331055 75.27412109 86.54412109 75.73730469 87.04980469 C76.64280793 88.03851282 77.54824434 89.02728217 78.45361328 90.01611328 C80.73892496 92.51164407 83.0257958 95.00574527 85.3125 97.5 C86.22917404 98.49999325 87.1458407 99.49999324 88.0625 100.5 C88.51625 100.995 88.97 101.49 89.4375 102 C90.8125 103.5 92.1875 105 93.5625 106.5 C94.01641113 106.99516113 94.47032227 107.49032227 94.93798828 108.00048828 C95.85308633 108.99880661 96.76812555 109.99717886 97.68310547 110.99560547 C99.99828852 113.5217842 102.3145401 116.04696832 104.6328125 118.5703125 C109.66158296 124.04592962 114.67058897 129.53807257 119.6328125 135.07421875 C121.10043386 136.7075393 122.57453787 138.33505543 124.0546875 139.95703125 C127.89130643 144.17200188 131.60953363 148.43755772 135.1875 152.875 C138.43202947 156.88826816 141.80001465 160.72410867 145.3125 164.5 C149.56775284 169.07935759 153.58572224 173.79285431 157.5078125 178.6640625 C159.57071464 181.20248107 161.67135086 183.69877304 163.79638672 186.18481445 C168.02434498 191.1317779 172.16767153 196.13213246 176.1875 201.25 C176.63520752 201.81976563 177.08291504 202.38953125 177.54418945 202.9765625 C180.08830127 206.2350397 182.58235845 209.52564954 185.04296875 212.84765625 C191.04821784 220.92173307 196.90365227 228.17292181 204.8125 234.5 C205.64910156 235.18578125 206.48570312 235.8715625 207.34765625 236.578125 C209.15076471 238.05460262 210.95822891 239.52577348 212.76953125 240.9921875 C216.29340603 243.89633077 219.7439798 246.87644136 223.1875 249.875 C233.58665433 258.92667683 244.11559502 267.80089933 254.8125 276.5 C256.52143198 277.89510034 258.22975079 279.29095208 259.9375 280.6875 C260.84113281 281.42613281 261.74476563 282.16476562 262.67578125 282.92578125 C265.05425388 284.87421232 267.42458449 286.83228932 269.79296875 288.79296875 C276.98953014 294.7464205 284.21149684 300.65106569 291.58007812 306.390625 C295.97964024 309.82418542 300.30730117 313.33927973 304.625 316.875 C310.82774066 321.94668805 317.14079837 326.85125917 323.52441406 331.69262695 C328.20041696 335.24568229 332.80649549 338.8725077 337.375 342.5625 C344.32999908 348.16824024 351.4463101 353.53492848 358.61572266 358.86230469 C360.96194685 360.61141248 363.30007152 362.37093317 365.63671875 364.1328125 C375.87775734 371.85123132 386.19648982 379.44589171 396.61669922 386.92041016 C398.79251966 388.48562677 400.96172806 390.0595628 403.12890625 391.63671875 C432.14036071 412.73566185 461.89372861 432.90027686 492.3046875 451.93066406 C493.98873442 452.98450495 495.67100545 454.04118863 497.3515625 455.10058594 C517.74326102 467.95452739 538.65433166 479.95532239 559.8125 491.5 C560.72273926 491.99757813 561.63297852 492.49515625 562.57080078 493.0078125 C580.56325646 502.82349578 598.74082358 512.26445797 616.99871826 521.57489014 C618.65605663 522.42020688 620.31268475 523.26691579 621.96923828 524.11376953 C636.18889785 531.36869788 650.60790756 538.16438226 665.12207031 544.80859375 C667.56897024 545.92880274 670.01354808 547.0538382 672.45605469 548.18359375 C760.56449585 588.91824714 853.68531865 618.97490294 977.8125 652.5 C979.32148865 652.88674896 979.32148865 652.88674896 980.86096191 653.28131104 C1090.77590736 681.3988381 1202.90079261 699.98865455 1457.41116333 716.61428833 C1482.51879764 717.20609903 1507.58829057 718.14069325 1532.66894531 719.44726562 C1568.21391328 721.28497958 1603.72483953 721.70749096 1639.3125 721.6875 C1640.3825528 721.68723312 1641.45260559 721.68696625 1642.55508423 721.68669128 C1678.6788463 721.67542227 1714.72739449 721.31836378 1750.8125 719.5 C1752.11592346 719.43447937 1753.41934692 719.36895874 1754.76226807 719.30145264 C1862.05422576 713.85690685 1968.70863513 701.3510856 2141.30548096 665.10235596 C2143.73883578 664.51769914 2146.17356426 663.93919288 2148.60888672 663.36279297 C2209.87217568 648.83557416 2270.37632303 630.23313861 2329.41430664 608.38696289 C2339.77812732 604.56177777 2350.03976375 601.01490723 2360.8125 598.5 C2362.20586578 598.17160629 2362.20586578 598.17160629 2363.62738037 597.83657837 C2370.63569676 596.18888991 2377.65102271 594.57234815 2384.66748047 592.95974731 C2456.34268372 576.44882019 2527.74992735 557.77162902 2596.80755615 532.23950195 C2598.96859833 531.44242481 2601.13188146 530.65162981 2603.29541016 529.86132812 C2607.19541904 528.43447757 2611.08880185 526.99067406 2614.97821045 525.53518677 C2616.46941317 524.97876515 2617.96209322 524.42628359 2619.45635986 523.87814331 C2630.59984275 519.77917035 2639.49301429 515.98554201 2645.5625 505.3125 C2646.41186545 503.8913918 2647.2621669 502.47084271 2648.11328125 501.05078125 C2648.5510791 500.30908691 2648.98887695 499.56739258 2649.43994141 498.80322266 C2651.80957329 494.82686066 2654.27823555 490.91342841 2656.75 487 C2657.25644043 486.19796143 2657.76288086 485.39592285 2658.28466797 484.56958008 C2672.96309766 461.44298182 2689.40535195 439.38614998 2707.20703125 418.57421875 C2709.57114187 415.80300845 2711.85093958 412.97072811 2714.125 410.125 C2718.95822686 404.18108546 2724.1982043 398.6462199 2729.453125 393.078125 C2732.20702606 390.15806678 2734.8992178 387.19077567 2737.5625 384.1875 C2744.49186421 376.46547789 2751.72250422 369.40001784 2759.82421875 362.9140625 C2768.31318623 356.05630838 2776.51370224 348.83628725 2784.59375 341.50390625 C2786.60558393 339.68688018 2788.63910434 337.90055608 2790.6875 336.125 C2793.95744805 333.27276987 2797.173036 330.36586494 2800.375 327.4375 C2800.88192383 326.97400146 2801.38884766 326.51050293 2801.91113281 326.03295898 C2804.73274197 323.44300689 2807.52407804 320.82631529 2810.28515625 318.171875 C2823.94368233 305.09747319 2838.88966979 293.91697525 2854.41503906 283.16601562 C2857.09447967 281.30404997 2859.7622828 279.42603954 2862.4296875 277.546875 C2872.69699272 270.3304747 2883.00765259 263.29137077 2893.73242188 256.7734375 C2896.0147291 255.37619402 2898.28138117 253.95558614 2900.546875 252.53125 C2956.1747314 217.62886632 3015.16993163 189.07237826 3076.8125 166.5 C3077.53314636 166.23507751 3078.25379272 165.97015503 3078.99627686 165.69720459 C3159.51295577 136.12124286 3243.15525544 116.3559153 3328.26635742 106.03735352 C3329.39187515 105.89984177 3329.39187515 105.89984177 3330.54013062 105.759552 C3332.10972599 105.58027146 3333.68170269 105.42110202 3335.2550354 105.27828979 C3336.04526093 105.20442047 3336.83548645 105.13055115 3337.6496582 105.05444336 C3338.35379349 104.9950206 3339.05792877 104.93559784 3339.78340149 104.87437439 C3341.87039452 104.58734329 3341.87039452 104.58734329 3343.80158997 103.49816895 C3346.03695004 102.38858822 3347.6704759 102.15422321 3350.14990234 101.97485352 C3351.00250641 101.906931 3351.85511047 101.83900848 3352.73355103 101.76902771 C3353.65421356 101.70216263 3354.5748761 101.63529755 3355.5234375 101.56640625 C3363.7222104 100.8965351 3371.87854241 100.06506158 3380.0390625 99.02734375 C3381.05740173 98.89816559 3382.07574097 98.76898743 3383.12493896 98.63589478 C3386.22951045 98.23935891 3389.33355736 97.83892639 3392.4375 97.4375 C3409.67713629 95.21649958 3426.5797001 93.3014514 3443.9765625 93.25976562 C3446.44043867 93.24998834 3448.90350317 93.21882217 3451.3671875 93.1875 C3470.69746044 93.05680363 3470.69746044 93.05680363 3477.875 99.0625 C3481.38988535 103.48445253 3481.33464193 107.04979846 3481.2734375 112.61328125 C3477.9063518 141.00523272 3451.26906453 169.59293248 3430.359375 187.171875 C3429.15163253 188.2088256 3428.00059061 189.31190939 3426.875 190.4375 C3424.94681186 192.36568814 3422.94900311 194.10668019 3420.875 195.875 C3418.41733904 198.00225718 3416.40687418 199.98675098 3414.3125 202.5 C3411.14734536 206.29818557 3407.58665802 209.32144179 3403.8125 212.5 C3402.81605469 213.34949219 3401.81960937 214.19898438 3400.79296875 215.07421875 C3393.87011151 220.97000147 3386.88075926 226.77897942 3379.8125 232.5 C3379.27995605 232.9336084 3378.74741211 233.3672168 3378.19873047 233.81396484 C3368.10979163 242.02225836 3357.77497432 249.8761959 3347.33251953 257.62841797 C3344.92554424 259.41604368 3342.52310273 261.20961618 3340.12109375 263.00390625 C3293.86768532 297.44210695 3244.68720967 327.89958682 3195.22412109 357.45947266 C3189.43087195 360.9244774 3183.64365637 364.3995354 3177.85583496 367.87359619 C3174.72833008 369.75073515 3171.60048424 371.62730574 3168.47265625 373.50390625 C3166.77713623 374.52121826 3166.77713623 374.52121826 3165.04736328 375.55908203 C3160.63574219 378.20605469 3156.22412109 380.85302734 3151.8125 383.5 C3153.38574414 385.07324414 3155.13729797 384.916066 3157.31738281 385.20507812 C3158.28960785 385.33650711 3159.26183289 385.4679361 3160.26351929 385.60334778 C3161.33671417 385.74455551 3162.40990906 385.88576324 3163.515625 386.03125 C3165.83323462 386.34482319 3168.15077715 386.65889261 3170.46826172 386.97338867 C3171.70316345 387.13986908 3172.93806519 387.30634949 3174.21038818 387.47787476 C3225.57003179 394.43929429 3276.42743173 403.87475745 3327.24616241 413.98941803 C3329.92976873 414.52333103 3332.61352239 415.05649863 3335.29730225 415.58953857 C3347.15073582 417.94445394 3359.00171484 420.31135756 3370.85021973 422.69094849 C3374.73068299 423.47027374 3378.61163158 424.24710423 3382.49304199 425.021698 C3417.50741056 432.01542439 3417.50741056 432.01542439 3434.69140625 436.2265625 C3435.76519028 436.48537201 3436.8389743 436.74418152 3437.94529724 437.01083374 C3450.76967397 440.26145144 3461.71445368 444.05636078 3468.8125 455.8125 C3470.75762096 462.98513355 3470.94505146 471.63015742 3467.8125 478.5 C3465.04751447 483.0171132 3461.98685503 487.26446595 3458.8125 491.5 C3457.83023438 492.83998047 3457.83023438 492.83998047 3456.828125 494.20703125 C3428.71901558 531.08571819 3376.84204361 552.6266383 3336.8125 573.5 C3335.69794434 574.08136719 3334.58338867 574.66273438 3333.43505859 575.26171875 C3294.36764319 595.50776508 3253.39726128 612.19658586 3211.8125 626.5 C3210.64541504 626.90669922 3209.47833008 627.31339844 3208.27587891 627.73242188 C3146.44396788 649.2347981 3081.18249656 663.84492783 3015.8125 668.5 C3014.71156006 668.58540039 3013.61062012 668.67080078 3012.47631836 668.75878906 C2998.33047904 669.73769132 2984.17457162 669.7435293 2970 669.75 C2969.33709457 669.75044186 2968.67418915 669.75088371 2967.99119568 669.75133896 C2870.38897805 669.78537401 2765.19912797 646.26785598 2686.38623047 578.85595703 C2682.0572761 575.12604506 2677.69026636 571.44104904 2673.31298828 567.76806641 C2671.89497412 566.56969909 2670.49190305 565.35371427 2669.08984375 564.13671875 C2662.39881545 558.47985247 2656.69204836 555.11718782 2647.75 555.4375 C2640.02333111 556.47053349 2632.98906242 559.6104484 2625.8125 562.5 C2551.9241585 591.94841689 2474.40310402 611.51834132 2396.8125 628.5 C2395.69379517 628.74544556 2394.57509033 628.99089111 2393.42248535 629.24377441 C2319.32852131 645.46406786 2244.65623347 659.055908 2170.15729713 673.2598505 C2154.7240137 676.20247895 2139.2915611 679.14944573 2123.8611908 682.10731506 C2121.92934493 682.47760363 2119.99744992 682.84763575 2118.06555176 683.21765137 C2089.15933299 688.76034119 2060.45143674 695.06496545 2031.7734375 701.6796875 C2030.72654755 701.91994659 2029.67965759 702.16020569 2028.6010437 702.40774536 C2021.95877123 703.94911325 2015.37773917 705.65813304 2008.8125 707.5 C2028.75885793 720.79757196 2068.22337552 716.77128909 2090.8125 712.5 C2099.5339329 710.72614924 2108.18343382 708.67584797 2116.8125 706.5 C2117.58480957 706.30712402 2118.35711914 706.11424805 2119.15283203 705.91552734 C2128.79159191 703.45297086 2137.97630362 699.95376714 2147.25 696.375 C2203.9037123 674.51785216 2263.37987092 661.18989075 2323.8125 655.5 C2324.89772949 655.39413574 2325.98295898 655.28827148 2327.10107422 655.17919922 C2412.04174028 647.25173874 2498.34159003 658.18999978 2580.8125 678.5 C2582.28708725 678.86044209 2583.76169633 679.22079488 2585.23632812 679.58105469 C2650.28948036 695.53385941 2713.70100054 717.0731454 2774.8125 744.5 C2775.94171875 745.0067627 2777.0709375 745.51352539 2778.234375 746.03564453 C2805.74659139 758.45655444 2832.95105992 771.74171715 2859.05664062 786.91259766 C2864.08901696 789.81129636 2869.17467731 792.61492743 2874.25 795.4375 C2883.66579409 800.69092224 2892.99657901 806.07730019 2902.29370117 811.53759766 C2908.00465882 814.88515743 2913.7510715 818.14330464 2919.5625 821.3125 C2939.5037764 832.24581258 2958.77778749 844.57165513 2977.99169922 856.72119141 C2979.88307641 857.91390166 2981.77798881 859.10102296 2983.67626953 860.28271484 C2986.41700431 861.98887075 2989.14694964 863.71115563 2991.875 865.4375 C2992.67808594 865.93282227 2993.48117188 866.42814453 2994.30859375 866.93847656 C3000.85902796 871.12751278 3006.64789776 876.2438661 3009.8125 883.5 C3010.95739527 891.32788862 3009.18448766 896.95877823 3004.55078125 903.19921875 C2954.01392016 960.10292849 2836.96954515 975.30407216 2758.6875 982.25 C2757.97630005 982.30916595 2757.2651001 982.36833191 2756.53234863 982.42929077 C2751.62840929 982.8298997 2746.72207246 983.17648503 2741.8125 983.5 C2741.11649689 983.5483902 2740.42049377 983.5967804 2739.70339966 983.64663696 C2721.99390094 984.84679063 2704.24069022 984.70053346 2686.5 984.6875 C2685.68736568 984.68723312 2684.87473137 984.68696625 2684.03747177 984.68669128 C2660.04188907 984.67679758 2636.10807801 984.55289016 2612.17199707 982.68359375 C2609.64077649 982.4866381 2607.10901626 982.29781885 2604.57714844 982.109375 C2540.12955157 977.2531041 2476.22948464 967.86162283 2412.8125 955.5 C2411.89033691 955.3203772 2410.96817383 955.14075439 2410.01806641 954.95568848 C2368.05639281 946.74960954 2326.47760847 936.76058972 2285.8125 923.5 C2284.64750977 923.12311035 2283.48251953 922.7462207 2282.28222656 922.35791016 C2253.49290774 912.96789089 2225.83560815 901.11182155 2198.8125 887.5 C2197.84779785 887.01821289 2196.8830957 886.53642578 2195.88916016 886.04003906 C2175.54976335 875.84320216 2156.05525439 864.11071365 2137.8125 850.5 C2137.19584473 850.04028809 2136.57918945 849.58057617 2135.94384766 849.10693359 C2127.59740798 842.83096308 2119.78441305 836.08366185 2112.24072266 828.86523438 C2110.96487424 827.64565415 2109.67660438 826.4390991 2108.38671875 825.234375 C2096.19601361 813.54169156 2086.50695454 799.39214754 2078.609375 784.52734375 C2078.04395996 783.46370605 2077.47854492 782.40006836 2076.89599609 781.30419922 C2075.78129675 779.18916951 2074.67941292 777.06732117 2073.59228516 774.93798828 C2067.45887686 763.22285392 2060.16261352 757.33990438 2047.8125 752.5 C2034.79265723 748.73599021 2021.28929195 746.69975094 2007.9375 744.5 C2006.89124451 744.32635925 2005.84498901 744.15271851 2004.76702881 743.97381592 C1977.25149883 739.42666276 1949.66046079 736.17491503 1921.8125 734.5 C1921.16292328 734.45796448 1920.51334656 734.41592896 1919.84408569 734.37261963 C1903.40880506 733.32497672 1886.96297107 733.25 1870.5 733.25 C1869.77116859 733.25 1869.04233719 733.25 1868.29141998 733.25 C1825.42605397 733.26873403 1783.127546 736.96099458 1740.47512817 740.90927124 C1693.07999392 745.29571495 1645.66602684 748.89278327 1598.125 751.25 C1596.93153961 751.30934723 1595.73807922 751.36869446 1594.50845337 751.42984009 C1562.06454393 753.01601194 1529.66641841 753.67056726 1497.18676758 753.63037109 C1492.54536054 753.62466173 1487.90401077 753.62806951 1483.26260567 753.63382244 C1464.84877583 753.65303239 1446.46777869 753.51929281 1428.06513977 752.85612488 C1414.64616465 752.3853809 1401.23804237 752.38807282 1387.8125 752.4375 C1385.35677178 752.44254156 1382.90104252 752.44709962 1380.4453125 752.45117188 C1374.56768467 752.46192944 1368.69009767 752.47844294 1362.8125 752.5 C1372.83042461 757.93048575 1382.89425977 763.05828875 1393.31240845 767.67495728 C1409.16994156 774.71175423 1424.80521209 782.17853375 1440.37286377 789.83204651 C1444.03210347 791.63096253 1447.69996827 793.40972841 1451.37890625 795.16796875 C1469.47522145 803.89169756 1487.08343286 814.22005724 1503.58911133 825.66992188 C1509.60803376 829.8400505 1514.62971561 830.26523098 1521.8125 829.5 C1526.39275465 828.29621914 1530.81010727 826.75884186 1535.25830078 825.1411438 C1538.89686239 823.82415866 1542.55841492 822.57546508 1546.22265625 821.33203125 C1546.95525665 821.08337814 1547.68785706 820.83472504 1548.44265747 820.57853699 C1632.108772 792.55847442 1729.35541523 804.61267988 1877.8125 843.5 C1878.589422 843.75245483 1879.36634399 844.00490967 1880.16680908 844.26501465 C1919.14812279 856.9612445 1957.35126296 871.85750528 1994.8125 888.5 C1995.85830231 888.96439484 1995.85830231 888.96439484 1996.92523193 889.43817139 C2017.07734389 898.39987959 2037.02469988 907.75926617 2056.8125 917.5 C2057.46665894 917.82160095 2058.12081787 918.1432019 2058.7947998 918.47454834 C2075.3498814 926.61685632 2091.78623586 934.90557385 2107.90527344 943.88818359 C2111.17019914 945.69831456 2114.44765969 947.48491236 2117.7265625 949.26953125 C2132.61255101 957.38543464 2147.25448988 965.81757716 2161.73876953 974.63671875 C2164.86774228 976.53348762 2168.00787782 978.41029036 2171.15234375 980.28125 C2184.86707099 988.44502877 2198.39807997 996.852381 2211.8125 1005.5 C2213.28241211 1006.44292657 2214.75245676 1007.38564658 2216.22265625 1008.328125 C2254.4423257 1032.8845521 2291.78645083 1058.82606303 2327.8125 1086.5 C2329.05449271 1087.45077534 2330.29665751 1088.40132596 2331.5390625 1089.3515625 C2342.77737985 1097.95673144 2353.8869767 1106.70868223 2364.84863281 1115.66333008 C2369.1467158 1119.16810441 2373.4927905 1122.60134894 2377.875 1126 C2383.55004624 1130.41347529 2388.99527376 1135.0555541 2394.40283203 1139.79150391 C2398.13299017 1143.05624782 2401.90198498 1146.24981653 2405.75 1149.375 C2406.61625 1150.08140625 2407.4825 1150.7878125 2408.375 1151.515625 C2409.95454783 1152.80153894 2411.53767191 1154.08307741 2413.125 1155.359375 C2418.30638781 1159.66449869 2422.93498959 1164.4799167 2423.8125 1171.5 C2424.3272698 1178.19200739 2423.08682528 1183.72816606 2418.8125 1188.9375 C2415.33880202 1191.65132655 2412.26430043 1191.66120962 2408 1191.6875 C2406.98292969 1191.70167969 2405.96585938 1191.71585938 2404.91796875 1191.73046875 C2390.92996927 1191.19689646 2377.46995069 1187.36270951 2364 1183.875 C2362.90502197 1183.59366211 2361.81004395 1183.31232422 2360.68188477 1183.02246094 C2321.59280023 1172.97009957 2282.77918964 1161.90000726 2244.19140625 1150.07421875 C2243.43315552 1149.84312912 2242.67490479 1149.61203949 2241.89367676 1149.37394714 C2238.82829785 1148.43776955 2235.77470112 1147.48737539 2232.734375 1146.47192383 C2227.36201338 1144.70440463 2223.33525363 1144.24772464 2217.6875 1144.8125 C2216.38554687 1144.93238281 2215.08359375 1145.05226563 2213.7421875 1145.17578125 C2212.77539062 1145.28277344 2211.80859375 1145.38976563 2210.8125 1145.5 C2218.45345441 1162.69214741 2234.29473745 1176.07032183 2248.8125 1187.5 C2258.00781803 1194.9473153 2267.1623651 1202.42002465 2275.8125 1210.5 C2276.46605469 1211.0775 2277.11960937 1211.655 2277.79296875 1212.25 C2283.78028715 1217.76497132 2287.9922771 1224.31991307 2288.375 1232.625 C2288.00536766 1238.98867025 2285.70287111 1244.0503759 2281 1248.375 C2277.59072169 1250.64785221 2274.79860146 1251.84800501 2270.8125 1252.5 C2269.99846207 1252.64027115 2269.18442413 1252.7805423 2268.34571838 1252.92506409 C2258.27911765 1254.15823305 2249.1013747 1252.28426947 2239.23919868 1250.32721138 C2234.93652121 1249.47364992 2230.62688699 1248.6577917 2226.31762218 1247.83825207 C2224.01765625 1247.40024801 2221.71807071 1246.96024218 2219.4188509 1246.5183382 C2207.67399454 1244.26375159 2195.9026855 1242.16653266 2184.12648773 1240.08296776 C2177.98092177 1238.99458408 2171.83690714 1237.89751914 2165.69287109 1236.80053711 C2164.44822334 1236.57835793 2163.20357559 1236.35617876 2161.92121124 1236.12726688 C2087.91100758 1222.90762743 2013.80827838 1209.63035014 1940.8125 1191.5 C1939.75077576 1191.23721252 1938.68905151 1190.97442505 1937.59515381 1190.70367432 C1849.76066264 1168.92752174 1764.67324255 1139.46240132 1627.41430664 1060.95849609 C1623.33736106 1057.66381345 1619.17280738 1054.56186508 1614.875 1051.5625 C1607.48688997 1046.3921894 1600.54905842 1040.71560938 1593.60351562 1034.97070312 C1592.06676363 1033.70879009 1590.51166198 1032.46928135 1588.953125 1031.234375 C1569.79528683 1016.02421258 1552.38994601 998.13618351 1537.8125 978.5 C1537.38630371 977.93071777 1536.96010742 977.36143555 1536.52099609 976.77490234 C1526.40757517 963.20233178 1517.96252483 948.83726662 1510.8125 933.5 C1510.48926758 932.8105127 1510.16603516 932.12102539 1509.83300781 931.41064453 C1505.08347184 921.12470917 1501.55459578 910.66361021 1498.3125 899.8125 C1486.16640924 859.38871055 1461.33863534 841.88404191 1425.8125 822.5 C1424.73436035 821.91138184 1423.6562207 821.32276367 1422.54541016 820.71630859 C1414.99029267 816.60164039 1407.40813692 812.53929825 1399.8125 808.5 C1398.78157227 807.94957031 1397.75064453 807.39914062 1396.68847656 806.83203125 C1362.915624 788.83978711 1327.90715227 773.22162657 1291.8125 760.5 C1290.71615234 760.11215332 1289.61980469 759.72430664 1288.49023438 759.32470703 C1253.62704938 747.08976056 1218.01066296 738.95464473 1181.49072266 733.63215637 C1077.32950742 718.39323189 974.61405999 695.94829443 832.8125 652.5 C831.93062012 652.2125592 831.04874023 651.92511841 830.14013672 651.62896729 C806.86128513 644.03377541 783.72404187 636.14475252 760.8125 627.5 C761.19849365 627.94730469 761.5844873 628.39460937 761.98217773 628.85546875 C765.00018615 632.36284604 767.9708445 635.89723055 770.875 639.5 C774.5551471 644.02132357 778.34723614 648.42684656 782.1875 652.8125 C787.35171643 658.72558773 792.27220628 664.7821174 797.078125 670.98828125 C799.39208795 673.97562407 801.75835748 676.91673301 804.13867188 679.85131836 C814.40878299 692.5388193 824.08289421 705.6924362 833.17407227 719.24975586 C838.32192096 727.27053579 838.32192096 727.27053579 845.8125 732.8125 C846.451875 733.11800781 847.09125 733.42351563 847.75 733.73828125 C852.68172258 735.55965607 857.68610235 735.71376951 862.890625 735.89453125 C864.52599529 735.96031716 866.16132943 736.02700651 867.79663086 736.09448242 C868.65449188 736.12931732 869.51235291 736.16415222 870.39620972 736.20004272 C945.46577157 739.36628402 1016.99595767 761.62466972 1148.00073242 819.60876465 C1149.68380925 820.43669511 1151.36821765 821.26191717 1153.05273438 822.08691406 C1165.83580669 828.35205201 1178.39637326 834.95907551 1190.84765625 841.859375 C1193.97745426 843.59127904 1197.11346657 845.31157732 1200.25 847.03125 C1215.21286191 855.25956924 1229.97629953 863.78486002 1244.61376953 872.57861328 C1246.68844654 873.82481295 1248.76484442 875.06815392 1250.84326172 876.30810547 C1284.5825017 896.43710785 1317.17996296 918.88064182 1347.8125 943.5 C1348.7730127 944.27126221 1348.7730127 944.27126221 1349.75292969 945.05810547 C1357.32779312 951.15204466 1364.8392922 957.31350602 1372.23510742 963.6237793 C1375.50767927 966.41295496 1378.82954384 969.12712416 1382.1875 971.8125 C1387.46076087 976.097507 1392.40631939 980.69304013 1397.33544922 985.36450195 C1401.1003489 988.9298793 1404.94090239 992.38202245 1408.85375977 995.78417969 C1420.8772191 1006.31650827 1432.13043592 1017.71355992 1443.4375 1029 C1444.09574768 1029.65565948 1444.75399536 1030.31131897 1445.43218994 1030.98684692 C1458.43182558 1043.94618147 1458.43182558 1043.94618147 1463.44482422 1049.91796875 C1464.98715624 1051.70203007 1466.6291453 1053.34910669 1468.3125 1055 C1471.32663582 1057.96735323 1474.11167333 1061.07345292 1476.87109375 1064.27734375 C1479.10054061 1066.82976883 1481.39251382 1069.31887514 1483.6875 1071.8125 C1487.73771292 1076.25250784 1491.56784122 1080.81934281 1495.33984375 1085.49609375 C1498.22133067 1088.9966679 1501.19979396 1092.4027129 1504.1875 1095.8125 C1509.35192435 1101.72539164 1514.27221815 1107.78213273 1519.078125 1113.98828125 C1521.39187673 1116.97535138 1523.75797836 1119.91615931 1526.13793945 1122.85058594 C1533.04396934 1131.38136395 1539.5505775 1140.18087178 1546.01708984 1149.04736328 C1547.80980318 1151.49631599 1549.61537674 1153.93519668 1551.42578125 1156.37109375 C1557.77355951 1164.91804104 1563.97741176 1173.53294786 1569.96484375 1182.3359375 C1572.62455595 1186.24188785 1575.33648239 1190.10979862 1578.05517578 1193.97485352 C1626.53195629 1262.90501136 1626.53195629 1262.90501136 1623.8125 1285.5 C1622.07634225 1290.80492646 1619.1672618 1293.25709228 1614.8125 1296.5 C1609.48772092 1299.16238954 1601.34048637 1298.63981098 1595.71777344 1296.82324219 C1590.85640097 1294.79747915 1586.32495089 1292.20058693 1581.8125 1289.5 C1580.82378906 1288.92636719 1579.83507813 1288.35273437 1578.81640625 1287.76171875 C1573.38040282 1284.45593437 1568.40133863 1280.67627532 1563.40576172 1276.74560547 C1557.26926903 1271.97473317 1550.82472196 1267.66710001 1544.38818359 1263.31494141 C1538.09290539 1259.05797162 1531.84065065 1254.74736763 1525.625 1250.375 C1518.50366125 1245.37113806 1511.35194376 1240.41562045 1504.16049194 1235.51303101 C1500.25882431 1232.85310131 1496.35886194 1230.19083258 1492.46630859 1227.51757812 C1480.70388668 1219.44247659 1468.87365824 1211.47301117 1457 1203.5625 C1456.08118042 1202.95026581 1455.16236084 1202.33803162 1454.21569824 1201.70724487 C1434.17710554 1188.35080746 1434.17710554 1188.35080746 1413.8125 1175.5 C1412.93932129 1174.96455566 1412.06614258 1174.42911133 1411.16650391 1173.87744141 C1400.82512747 1167.57460001 1390.3370265 1161.58862361 1379.625 1155.9375 C1378.70533447 1155.44878418 1377.78566895 1154.96006836 1376.83813477 1154.45654297 C1363.02950642 1147.13387852 1363.02950642 1147.13387852 1347.8125 1146.5 C1345.31979463 1148.2034844 1345.31979463 1148.2034844 1344.8125 1151.5 C1344.88160969 1159.26223785 1346.64835958 1166.21886003 1349.1875 1173.5 C1349.53329102 1174.51747314 1349.87908203 1175.53494629 1350.23535156 1176.58325195 C1353.45247753 1185.85676533 1357.127455 1194.93768487 1360.95458984 1203.97460938 C1372.61069455 1231.70502946 1372.61069455 1231.70502946 1368.9375 1241.9375 C1367.8125 1243.5 1367.8125 1243.5 1365.8125 1244.5 C1330.00057842 1247.6109346 1289.32278405 1233.59999007 1256.6796875 1220.62890625 C1253.49328979 1219.37431642 1250.29451684 1218.15494743 1247.09375 1216.9375 C1234.88241672 1212.26299994 1222.92933689 1207.32683833 1211.19287109 1201.55761719 C1204.56500921 1198.30341239 1197.85880678 1195.32165651 1191.0625 1192.4375 C1181.40427533 1188.31608132 1172.17717065 1183.6253462 1162.94580078 1178.63330078 C1160.38247432 1177.27155193 1157.78608614 1175.99040643 1155.17651367 1174.72021484 C1135.48070818 1165.12898959 1116.44976745 1153.99034921 1097.8125 1142.5 C1097.07257813 1142.04657227 1096.33265625 1141.59314453 1095.5703125 1141.12597656 C1069.39454266 1125.04165483 1044.00770307 1107.42883424 1019.8125 1088.5 C1018.66166533 1087.60780585 1017.51061768 1086.71588637 1016.359375 1085.82421875 C1009.39526763 1080.41206852 1002.59731425 1074.84057124 995.890625 1069.11328125 C993.0854268 1066.72117731 990.23786843 1064.38544149 987.375 1062.0625 C977.75175495 1054.21306064 968.37293435 1046.12048057 959.29003906 1037.65136719 C956.46884509 1035.02114634 953.6209743 1032.44168538 950.6875 1029.9375 C946.89441348 1026.66456248 943.3961284 1023.11493976 939.8828125 1019.54882812 C937.24382054 1016.8841793 934.55482301 1014.3535909 931.6875 1011.9375 C927.79366782 1008.61465747 924.48375426 1004.88451431 921.10546875 1001.046875 C918.87373326 998.56801377 916.56373754 996.2149283 914.1875 993.875 C910.18114435 989.91001807 906.46972115 985.78580604 902.8125 981.5 C901.89652605 980.44731352 900.97979612 979.39528457 900.0625 978.34375 C893.34269703 970.61434292 886.91357301 962.72853651 880.8125 954.5 C880.31105469 953.82453125 879.80960938 953.1490625 879.29296875 952.453125 C866.98521471 935.80321929 855.88265828 918.59184475 845.8125 900.5 C845.36406738 899.69643066 844.91563477 898.89286133 844.45361328 898.06494141 C826.84290126 866.2236072 810.68392461 830.13285119 810.5625 793.125 C810.55855225 792.07441406 810.55460449 791.02382813 810.55053711 789.94140625 C810.60475174 782.58162977 811.27507919 775.57863222 812.83300781 768.38525391 C814.01954307 762.71824038 814.18924703 757.64529558 811.82421875 752.2421875 C808.03152966 746.894384 803.85423813 741.94310912 799.54956055 737.00537109 C796.00402875 732.93205892 792.61536279 728.77182253 789.3125 724.5 C785.08139548 719.0391279 780.67498557 713.76435664 776.15454102 708.54125977 C772.38513443 704.18374488 768.72199731 699.75021278 765.08984375 695.27734375 C762.07062286 691.59524075 758.98748055 687.96937107 755.90258789 684.34228516 C752.95278692 680.86737521 750.05578348 677.35537977 747.1875 673.8125 C743.61607231 669.4212962 739.88133787 665.21890062 736.06640625 661.0390625 C733.70690487 658.38104535 731.47525885 655.64607706 729.25 652.875 C726.01569944 648.87571705 722.65979004 645.18398411 718.9296875 641.64453125 C717.09975878 639.79096876 715.41726055 637.89712395 713.72265625 635.921875 C709.17874239 630.68972738 704.28356018 625.82512816 699.375 620.9375 C698.47201172 620.03064453 697.56902344 619.12378906 696.63867188 618.18945312 C691.52593382 613.08411947 686.33239691 608.16190429 680.8125 603.5 C680.20897705 602.98445557 679.6054541 602.46891113 678.98364258 601.93774414 C650.39266563 577.68931192 616.99906155 562.34964969 583.3125 546.5625 C574.96508334 542.64037532 566.81606875 538.38596514 558.68652344 534.03271484 C556.00867646 532.60462078 553.32514948 531.18771254 550.63937378 529.77459717 C536.07620835 522.11002609 521.69573825 514.23489548 507.52734375 505.85546875 C502.81641776 503.07287004 498.06169675 500.37921632 493.28393555 497.71337891 C479.54134216 490.04468411 466.152492 481.84599006 452.8125 473.5 C451.52931885 472.69780029 451.52931885 472.69780029 450.22021484 471.87939453 C445.57443079 468.96998055 440.94272683 466.03909152 436.31933594 463.09423828 C433.57308521 461.34774264 430.82160377 459.60963697 428.0703125 457.87109375 C399.9918717 440.07455144 372.54900185 421.21831763 345.58496094 401.77783203 C343.60238981 400.34852386 341.61753328 398.92241527 339.6328125 397.49609375 C324.19139714 386.38531197 308.83972996 375.16638418 293.8125 363.5 C291.64760148 361.83103119 289.47999741 360.16559144 287.3125 358.5 C286.22783421 357.66540406 285.14319873 356.83076872 284.05859375 355.99609375 C281.9064653 354.34046114 279.75270335 352.68698773 277.59765625 351.03515625 C272.04570366 346.77745152 266.50835878 342.50149979 261 338.1875 C260.4318457 337.7430957 259.86369141 337.29869141 259.27832031 336.84082031 C255.97353658 334.24223411 252.71130874 331.59943123 249.4765625 328.9140625 C248.75186768 328.31505127 248.02717285 327.71604004 247.28051758 327.09887695 C245.86616484 325.92673753 244.45694381 324.74837241 243.0534668 323.56323242 C242.41320557 323.03318604 241.77294434 322.50313965 241.11328125 321.95703125 C240.26503784 321.2451062 240.26503784 321.2451062 239.3996582 320.51879883 C237.70606239 319.22990587 237.70606239 319.22990587 234.8125 319.5 C241.96658278 333.92857347 249.15141949 348.332654 256.8125 362.5 C257.33038086 363.46019043 257.84826172 364.42038086 258.38183594 365.40966797 C266.45532373 380.30532364 275.06382013 394.63887702 284.8125 408.5 C285.29235352 409.19174316 285.77220703 409.88348633 286.26660156 410.59619141 C292.73648474 420.39126672 292.73648474 420.39126672 302.8125 425.5 C307.74508486 425.7246168 312.09920669 424.45137325 316.75 422.9375 C327.09640671 419.72215515 336.98856084 421.54245613 346.61474609 426.41162109 C354.40552229 430.68545387 361.76875124 435.72635702 369.12109375 440.7043457 C372.92177185 443.27246468 376.77295229 445.7199367 380.6940918 448.09960938 C389.52441604 453.47242638 397.68169486 459.51814917 405.79589844 465.91259766 C407.70292457 467.41374583 409.61900631 468.90229262 411.5390625 470.38671875 C420.55391912 477.37740332 429.29226575 484.67460868 437.8828125 492.1796875 C444.53119921 497.95071805 451.42583363 503.21036865 458.59863281 508.31420898 C464.5735034 512.57370145 470.42771354 516.97208645 476.25 521.4375 C488.30178464 530.66856031 500.49482362 539.69430765 512.83129883 548.54125977 C525.03602915 557.30086557 536.74511781 566.32577497 547.8125 576.5 C549.1417238 577.67134665 550.47488407 578.83824593 551.8125 580 C559.45371042 586.67648846 566.88770544 593.4632105 573.9765625 600.7265625 C576.08463235 602.78817351 578.19121094 604.70808146 580.42578125 606.62109375 C585.46457584 610.98757393 590.15636925 615.69371398 594.8581543 620.4152832 C596.3724258 621.93491668 597.8919743 623.44912517 599.41210938 624.96289062 C604.20189198 629.74939778 608.88417848 634.58470169 613.28979492 639.73217773 C615.67487084 642.50119083 618.18793259 645.14727581 620.6875 647.8125 C625.11267844 652.57474317 629.34585996 657.43748056 633.4140625 662.51171875 C635.20295137 664.74054609 637.00856241 666.94769621 638.8359375 669.14453125 C646.67092678 678.59953711 653.89834733 688.35467896 660.8125 698.5 C661.30073242 699.21381836 661.78896484 699.92763672 662.29199219 700.66308594 C686.58791867 736.29817916 707.56825734 774.13785692 727.25048828 812.47314453 C729.48933366 816.81156357 731.77483915 821.12468931 734.0625 825.4375 C737.84561548 832.58500381 741.4799721 839.7992952 745.07446289 847.04321289 C747.80513624 852.5305357 750.62016397 857.9646851 753.5 863.375 C758.26205655 872.33073861 762.78381588 881.40234698 767.29888916 890.48403931 C771.06688666 898.06016419 774.88009871 905.6027273 778.875 913.0625 C788.44362974 931.07651166 797.176427 949.42595956 804.875 968.3125 C805.1406778 968.95988129 805.40635559 969.60726257 805.68008423 970.27426147 C808.5976849 977.41451047 811.29067763 984.6163309 813.68359375 991.94921875 C813.89927505 992.58664505 814.11495636 993.22407135 814.33717346 993.8808136 C816.00931542 999.1831119 816.69653407 1004.47749246 815.11328125 1009.890625 C812.34286241 1015.10295452 809.61972965 1018.56425678 803.8125 1020.5 C801.79530676 1020.64711648 799.77234397 1020.72107494 797.75 1020.75 C796.68652344 1020.77578125 795.62304688 1020.8015625 794.52734375 1020.828125 C784.51318062 1019.94359324 775.81660757 1015.31212856 766.9041748 1010.98059082 C719.10803611 987.79545729 669.6321443 968.69369587 620 949.875 C618.27608032 949.22072021 618.27608032 949.22072021 616.51733398 948.55322266 C611.62678666 946.69831694 606.73602739 944.84422375 601.83740234 943.01074219 C556.39204352 925.99971549 511.25646401 906.95704553 469.8125 881.5 C468.96574707 880.98066895 468.11899414 880.46133789 467.24658203 879.92626953 C450.31735891 869.48460031 434.18243207 858.13392322 418.8125 845.5 C417.96042969 844.82066406 417.10835938 844.14132812 416.23046875 843.44140625 C409.36186055 837.92883229 402.90082816 832.06501278 396.47851562 826.04833984 C394.82682678 824.51331484 393.15906089 822.99815522 391.484375 821.48828125 C384.65049734 815.30933368 378.2915374 808.88212677 372.1640625 802.00439453 C370.79130598 800.4764094 369.39955304 798.96830007 368 797.46484375 C362.78407211 791.85699884 357.80009682 786.12095363 352.99609375 780.15234375 C350.81852932 777.50732363 348.55931237 774.96787475 346.25 772.4375 C341.87574256 767.62506133 337.8221009 762.61770878 333.8125 757.5 C332.97188339 756.43968439 332.13070851 755.3798112 331.2890625 754.3203125 C279.86106203 689.44421233 221.27902789 600.74527954 229.03955078 513.9609375 C231.32582122 494.67078272 239.09556404 476.70252036 251.6953125 461.98828125 C258.36814087 454.28230734 258.36814087 454.28230734 261.00268555 444.70214844 C260.32366325 436.839785 255.32793213 429.77263689 251 423.4375 C239.92184863 406.79721003 229.69056458 389.58985434 220.17480469 372.00976562 C218.65143026 369.20326221 217.11011114 366.40689902 215.5703125 363.609375 C207.8818972 349.54262587 200.6488626 335.28396369 193.625 320.875 C193.19464447 319.99222382 192.76428894 319.10944763 192.32089233 318.19992065 C187.65143832 308.60292534 183.07832874 298.97460931 178.70532227 289.23901367 C171.99504357 274.30439408 164.57761084 260.90588495 153.19921875 249.02734375 C150.81975369 246.50768108 148.65909446 243.89718321 146.5 241.1875 C142.42866263 236.1361593 138.06922588 231.42526108 133.62329102 226.70751953 C129.45209262 222.2563626 125.60206184 217.64168907 121.7890625 212.87890625 C119.55128497 210.18561274 117.13289237 207.79203779 114.6171875 205.36328125 C111.56140536 202.2082854 108.88495285 198.74340328 106.1328125 195.32421875 C103.92921594 192.64206334 101.65206175 190.06373579 99.3125 187.5 C96.28967579 184.18010514 93.38737839 180.80235888 90.5625 177.3125 C86.93986405 172.83785037 83.2176073 168.46618678 79.4375 164.125 C68.67808361 151.76030419 58.20518991 139.17409113 47.8125 126.5 C47.00941406 125.52160156 46.20632812 124.54320312 45.37890625 123.53515625 C43.963004 121.80749571 42.54893112 120.07833425 41.13671875 118.34765625 C39.37216104 116.18570235 37.60329668 114.02753824 35.83203125 111.87109375 C28.49126984 102.91202813 21.36219464 93.81381633 14.38134766 84.57177734 C12.88056665 82.58988695 11.36937692 80.61640296 9.85546875 78.64453125 C-2.31421365 62.71686396 -13.91335168 46.29971068 -23.1875 28.5 C-23.65929687 27.6440625 -24.13109375 26.788125 -24.6171875 25.90625 C-27.46082427 20.33664418 -28.57873444 14.68118926 -27.1875 8.5 C-21.26399687 -0.83503359 -10.16352031 -4.44037295 0 0 Z " fill="#A46B2F" transform="translate(52.1875,31.5)"/>
<path d="M0 0 C2.46387617 -0.00977729 4.92694067 -0.04094346 7.390625 -0.07226562 C26.72089794 -0.20296199 26.72089794 -0.20296199 33.8984375 5.80273438 C37.41332285 10.22468691 37.35807943 13.79003284 37.296875 19.35351562 C33.9297893 47.74546709 7.29250203 76.33316685 -13.6171875 93.91210938 C-14.82492997 94.94905998 -15.97597189 96.05214377 -17.1015625 97.17773438 C-19.02975064 99.10592251 -21.02755939 100.84691456 -23.1015625 102.61523438 C-25.55922346 104.74249156 -27.56968832 106.72698536 -29.6640625 109.24023438 C-32.82921714 113.03841994 -36.38990448 116.06167617 -40.1640625 119.24023438 C-41.16050781 120.08972656 -42.15695312 120.93921875 -43.18359375 121.81445312 C-50.10645099 127.71023585 -57.09580324 133.51921379 -64.1640625 139.24023438 C-64.69660645 139.67384277 -65.22915039 140.10745117 -65.77783203 140.55419922 C-75.86677087 148.76249273 -86.20158818 156.61643027 -96.64404297 164.36865234 C-99.05101826 166.15627806 -101.45345977 167.94985055 -103.85546875 169.74414062 C-150.10887718 204.18234132 -199.28935283 234.6398212 -248.75244141 264.19970703 C-254.54569055 267.66471178 -260.33290613 271.13976977 -266.12072754 274.61383057 C-269.24823242 276.49096952 -272.37607826 278.36754012 -275.50390625 280.24414062 C-276.63425293 280.92234863 -277.76459961 281.60055664 -278.92919922 282.29931641 C-283.34082031 284.94628906 -287.75244141 287.59326172 -292.1640625 290.24023438 C-290.59081836 291.81347851 -288.83926453 291.65630038 -286.65917969 291.9453125 C-285.68695465 292.07674149 -284.71472961 292.20817047 -283.71304321 292.34358215 C-282.63984833 292.48478989 -281.56665344 292.62599762 -280.4609375 292.77148438 C-278.14332788 293.08505756 -275.82578535 293.39912699 -273.50830078 293.71362305 C-271.65594818 293.96334366 -271.65594818 293.96334366 -269.76617432 294.21810913 C-218.40653071 301.17952867 -167.54913077 310.61499182 -116.73040009 320.7296524 C-114.04679377 321.26356541 -111.36304011 321.79673301 -108.67926025 322.32977295 C-96.82582668 324.68468831 -84.97484766 327.05159194 -73.12634277 329.43118286 C-69.24587951 330.21050812 -65.36493092 330.9873386 -61.48352051 331.76193237 C-26.46915194 338.75565877 -26.46915194 338.75565877 -9.28515625 342.96679688 C-8.21137222 343.22560638 -7.1375882 343.48441589 -6.03126526 343.75106812 C6.79311147 347.00168581 17.73789118 350.79659516 24.8359375 362.55273438 C26.78105846 369.72536792 26.96848896 378.3703918 23.8359375 385.24023438 C21.07095197 389.75734758 18.01029253 394.00470033 14.8359375 398.24023438 C14.18109375 399.13355469 13.52625 400.026875 12.8515625 400.94726562 C-15.25754692 437.82595257 -67.13451889 459.36687267 -107.1640625 480.24023438 C-108.27861816 480.82160156 -109.39317383 481.40296875 -110.54150391 482.00195312 C-149.60891931 502.24799945 -190.57930122 518.93682024 -232.1640625 533.24023438 C-233.33114746 533.64693359 -234.49823242 534.05363281 -235.70068359 534.47265625 C-297.53259462 555.97503247 -362.79406594 570.58516221 -428.1640625 575.24023438 C-429.26500244 575.32563477 -430.36594238 575.41103516 -431.50024414 575.49902344 C-445.64608346 576.47792569 -459.80199088 576.48376367 -473.9765625 576.49023438 C-474.63946793 576.49067623 -475.30237335 576.49111809 -475.98536682 576.49157333 C-573.58758445 576.52560838 -678.77743453 553.00809035 -757.59033203 485.59619141 C-761.9192864 481.86627943 -766.28629614 478.18128342 -770.66357422 474.50830078 C-772.08158838 473.30993346 -773.48465945 472.09394865 -774.88671875 470.87695312 C-781.57774705 465.22008685 -787.28451414 461.85742219 -796.2265625 462.17773438 C-805.35983448 463.34964654 -813.90279286 467.47593551 -822.34765625 470.97070312 C-823.02022461 471.2463208 -823.69279297 471.52193848 -824.38574219 471.8059082 C-826.24745644 472.57237402 -828.10247089 473.35505482 -829.95703125 474.13867188 C-833.01097371 475.18765089 -834.99347171 475.33516023 -838.1640625 475.24023438 C-838.81911276 471.3458946 -839.4613264 467.44953473 -840.1015625 463.55273438 C-840.28396484 462.46927734 -840.46636719 461.38582031 -840.65429688 460.26953125 C-841.90500072 452.60612768 -842.68703983 444.98966284 -843.1640625 437.24023438 C-842.30240479 436.93843262 -841.44074707 436.63663086 -840.55297852 436.32568359 C-837.31198995 435.18375156 -834.07541812 434.03064618 -830.84106445 432.87011719 C-829.4490827 432.373176 -828.05555384 431.88054388 -826.66040039 431.39257812 C-807.40262294 424.6485556 -800.31795881 415.5891364 -790.12524414 398.39428711 C-774.67534873 372.55611771 -756.32860601 348.1809542 -736.76953125 325.31445312 C-734.40542063 322.54324282 -732.12562292 319.71096248 -729.8515625 316.86523438 C-725.01833564 310.92131983 -719.7783582 305.38645427 -714.5234375 299.81835938 C-711.76953644 296.89830116 -709.0773447 293.93101005 -706.4140625 290.92773438 C-699.48469829 283.20571227 -692.25405828 276.14025221 -684.15234375 269.65429688 C-675.66337627 262.79654275 -667.46286026 255.57652163 -659.3828125 248.24414062 C-657.37097857 246.42711456 -655.33745816 244.64079045 -653.2890625 242.86523438 C-650.01911445 240.01300424 -646.8035265 237.10609931 -643.6015625 234.17773438 C-643.09463867 233.71423584 -642.58771484 233.2507373 -642.06542969 232.77319336 C-639.24382053 230.18324127 -636.45248446 227.56654966 -633.69140625 224.91210938 C-620.03288017 211.83770757 -605.08689271 200.65720963 -589.56152344 189.90625 C-586.88208283 188.04428435 -584.2142797 186.16627392 -581.546875 184.28710938 C-571.27956978 177.07070907 -560.96890991 170.03160515 -550.24414062 163.51367188 C-547.9618334 162.11642839 -545.69518133 160.69582051 -543.4296875 159.27148438 C-487.8018311 124.36910069 -428.80663087 95.81261264 -367.1640625 73.24023438 C-366.44341614 72.97531189 -365.72276978 72.7103894 -364.98028564 72.43743896 C-284.46360673 42.86147723 -200.82130706 23.09614968 -115.71020508 12.77758789 C-114.95985992 12.68591339 -114.20951477 12.59423889 -113.43643188 12.49978638 C-111.86683651 12.32050583 -110.29485981 12.1613364 -108.7215271 12.01852417 C-107.93130157 11.94465485 -107.14107605 11.87078552 -106.3269043 11.79467773 C-105.62276901 11.73525497 -104.91863373 11.67583221 -104.19316101 11.61460876 C-102.10616798 11.32757767 -102.10616798 11.32757767 -100.17497253 10.23840332 C-97.93961246 9.1288226 -96.3060866 8.89445758 -93.82666016 8.71508789 C-92.97405609 8.64716537 -92.12145203 8.57924286 -91.24301147 8.50926208 C-89.86201767 8.40896446 -89.86201767 8.40896446 -88.453125 8.30664062 C-80.2543521 7.63676947 -72.09802009 6.80529596 -63.9375 5.76757812 C-62.91916077 5.63839996 -61.90082153 5.5092218 -60.85162354 5.37612915 C-57.74705205 4.97959329 -54.64300514 4.57916076 -51.5390625 4.17773438 C-34.29942621 1.95673395 -17.3968624 0.04168577 0 0 Z " fill="#D3403A" transform="translate(3496.1640625,124.759765625)"/>
<path d="M0 0 C1.47458725 0.36044209 2.94919633 0.72079488 4.42382812 1.08105469 C69.47698036 17.03385941 132.88850054 38.5731454 194 66 C195.12921875 66.5067627 196.2584375 67.01352539 197.421875 67.53564453 C224.93409139 79.95655444 252.13855992 93.24171715 278.24414062 108.41259766 C283.27651696 111.31129636 288.36217731 114.11492743 293.4375 116.9375 C302.85329409 122.19092224 312.18407901 127.57730019 321.48120117 133.03759766 C327.19215882 136.38515743 332.9385715 139.64330464 338.75 142.8125 C358.6912764 153.74581258 377.96528749 166.07165513 397.17919922 178.22119141 C399.07057641 179.41390166 400.96548881 180.60102296 402.86376953 181.78271484 C405.60450431 183.48887075 408.33444964 185.21115563 411.0625 186.9375 C411.86558594 187.43282227 412.66867187 187.92814453 413.49609375 188.43847656 C420.04652796 192.62751278 425.83539776 197.7438661 429 205 C430.14489527 212.82788862 428.37198766 218.45877823 423.73828125 224.69921875 C373.20142016 281.60292849 256.15704515 296.80407216 177.875 303.75 C177.16380005 303.80916595 176.4526001 303.86833191 175.71984863 303.92929077 C170.81590929 304.3298997 165.90957246 304.67648503 161 305 C160.30399689 305.0483902 159.60799377 305.0967804 158.89089966 305.14663696 C141.18140094 306.34679063 123.42819022 306.20053346 105.6875 306.1875 C104.87486568 306.18723312 104.06223137 306.18696625 103.22497177 306.18669128 C79.22938907 306.17679758 55.29557801 306.05289016 31.35949707 304.18359375 C28.82827649 303.9866381 26.29651626 303.79781885 23.76464844 303.609375 C-40.68294843 298.7531041 -104.58301536 289.36162283 -168 277 C-168.92216309 276.8203772 -169.84432617 276.64075439 -170.79443359 276.45568848 C-212.75610719 268.24960954 -254.33489153 258.26058972 -295 245 C-296.16499023 244.62311035 -297.32998047 244.2462207 -298.53027344 243.85791016 C-327.31959226 234.46789089 -354.97689185 222.61182155 -382 209 C-383.44705322 208.27731934 -383.44705322 208.27731934 -384.92333984 207.54003906 C-405.26273665 197.34320216 -424.75724561 185.61071365 -443 172 C-443.61665527 171.54028809 -444.23331055 171.08057617 -444.86865234 170.60693359 C-453.21509202 164.33096308 -461.02808695 157.58366185 -468.57177734 150.36523438 C-469.84762576 149.14565415 -471.13589562 147.9390991 -472.42578125 146.734375 C-484.61648639 135.04169156 -494.30554546 120.89214754 -502.203125 106.02734375 C-502.76854004 104.96370605 -503.33395508 103.90006836 -503.91650391 102.80419922 C-505.03120325 100.68916951 -506.13308708 98.56732117 -507.22021484 96.43798828 C-513.34638478 84.73667956 -520.65007538 78.81515445 -533 74 C-535.6139167 73.25630059 -538.17073826 72.58533114 -540.81640625 71.99609375 C-541.90863747 71.7462674 -541.90863747 71.7462674 -543.02293396 71.49139404 C-551.48091663 69.60106643 -560.0145297 68.16374763 -568.5625 66.75 C-570.17130895 66.47967201 -571.78003339 66.20884054 -573.38867188 65.9375 C-577.25817135 65.28589659 -581.12872784 64.64098376 -585 64 C-582.5102874 61.0978875 -579.92639396 59.91977748 -576.41796875 58.46875 C-575.27384521 57.99300537 -574.12972168 57.51726074 -572.95092773 57.02709961 C-571.69697235 56.51678549 -570.44248037 56.00778822 -569.1875 55.5 C-568.54740997 55.24010284 -567.90731995 54.98020569 -567.24783325 54.71243286 C-563.86822575 53.34275378 -560.48404887 51.98511749 -557.09570312 50.63720703 C-554.43880365 49.57936161 -551.78952037 48.50558323 -549.14648438 47.41357422 C-533.42952688 40.93536918 -518.91379372 36.96109478 -501.890625 35.65625 C-490.36148491 34.71349238 -479.18717402 31.83287254 -468 29 C-467.09266113 28.77473633 -466.18532227 28.54947266 -465.25048828 28.31738281 C-453.0161996 25.23171302 -441.37992001 20.93432201 -429.62231445 16.38452148 C-374.37126056 -4.88591528 -315.87167247 -17.45707742 -257 -23 C-255.91477051 -23.10586426 -254.82954102 -23.21172852 -253.71142578 -23.32080078 C-168.77075972 -31.24826126 -82.47090997 -20.31000022 0 0 Z " fill="#EEA91F" transform="translate(2633,710)"/>
<path d="M0 0 C1.00458252 0.12842285 2.00916504 0.2568457 3.04418945 0.38916016 C10.06008147 1.26115488 17.0448699 2.04404605 24.10520935 2.44628906 C53.2483134 4.15969727 53.2483134 4.15969727 60.328125 11.4609375 C63.40751485 15.52129431 65.65145925 19.83764005 67.73828125 24.47265625 C71.01627018 31.03878268 75.26146466 36.32049039 82.0078125 39.34375 C86.96238922 40.97584586 91.90082683 41.21471506 97.078125 41.39453125 C98.71349529 41.46031716 100.34882943 41.52700651 101.98413086 41.59448242 C102.84199188 41.62931732 103.69985291 41.66415222 104.58370972 41.70004272 C179.65327157 44.86628402 251.18345767 67.12466972 382.18823242 125.10876465 C383.87130925 125.93669511 385.55571765 126.76191717 387.24023438 127.58691406 C400.02330669 133.85205201 412.58387326 140.45907551 425.03515625 147.359375 C428.16495426 149.09127904 431.30096657 150.81157732 434.4375 152.53125 C449.40036191 160.75956924 464.16379953 169.28486002 478.80126953 178.07861328 C480.87594654 179.32481295 482.95234442 180.56815392 485.03076172 181.80810547 C518.7700017 201.93710785 551.36746296 224.38064182 582 249 C582.6403418 249.5141748 583.28068359 250.02834961 583.94042969 250.55810547 C591.51529312 256.65204466 599.0267922 262.81350602 606.42260742 269.1237793 C609.69517927 271.91295496 613.01704384 274.62712416 616.375 277.3125 C621.64826087 281.597507 626.59381939 286.19304013 631.52294922 290.86450195 C635.2878489 294.4298793 639.12840239 297.88202245 643.04125977 301.28417969 C655.0647191 311.81650827 666.31793592 323.21355992 677.625 334.5 C678.28324768 335.15565948 678.94149536 335.81131897 679.61968994 336.48684692 C692.61932558 349.44618147 692.61932558 349.44618147 697.63232422 355.41796875 C699.17465624 357.20203007 700.8166453 358.84910669 702.5 360.5 C705.51413582 363.46735323 708.29917333 366.57345292 711.05859375 369.77734375 C713.28804061 372.32976883 715.58001382 374.81887514 717.875 377.3125 C721.92521292 381.75250784 725.75534122 386.31934281 729.52734375 390.99609375 C732.40883067 394.4966679 735.38729396 397.9027129 738.375 401.3125 C743.53942435 407.22539164 748.45971815 413.28213273 753.265625 419.48828125 C755.57937673 422.47535138 757.94547836 425.41615931 760.32543945 428.35058594 C767.23146934 436.88136395 773.7380775 445.68087178 780.20458984 454.54736328 C781.99730318 456.99631599 783.80287674 459.43519668 785.61328125 461.87109375 C791.96105951 470.41804104 798.16491176 479.03294786 804.15234375 487.8359375 C806.81205595 491.74188785 809.52398239 495.60979862 812.24267578 499.47485352 C860.71945629 568.40501136 860.71945629 568.40501136 858 591 C856.26384225 596.30492646 853.3547618 598.75709228 849 602 C843.67522092 604.66238954 835.52798637 604.13981098 829.90527344 602.32324219 C825.04390097 600.29747915 820.51245089 597.70058693 816 595 C815.01128906 594.42636719 814.02257813 593.85273437 813.00390625 593.26171875 C807.56790282 589.95593437 802.58883863 586.17627532 797.59326172 582.24560547 C791.45676903 577.47473317 785.01222196 573.16710001 778.57568359 568.81494141 C772.28040539 564.55797162 766.02815065 560.24736763 759.8125 555.875 C752.69116125 550.87113806 745.53944376 545.91562045 738.34799194 541.01303101 C734.44632431 538.35310131 730.54636194 535.69083258 726.65380859 533.01757812 C714.89138668 524.94247659 703.06115824 516.97301117 691.1875 509.0625 C690.26868042 508.45026581 689.34986084 507.83803162 688.40319824 507.20724487 C668.36460554 493.85080746 668.36460554 493.85080746 648 481 C647.12682129 480.46455566 646.25364258 479.92911133 645.35400391 479.37744141 C635.01262747 473.07460001 624.5245265 467.08862361 613.8125 461.4375 C612.89283447 460.94878418 611.97316895 460.46006836 611.02563477 459.95654297 C597.21700642 452.63387852 597.21700642 452.63387852 582 452 C579.50729463 453.7034844 579.50729463 453.7034844 579 457 C579.06910969 464.76223785 580.83585958 471.71886003 583.375 479 C583.72079102 480.01747314 584.06658203 481.03494629 584.42285156 482.08325195 C587.63997753 491.35676533 591.314955 500.43768487 595.14208984 509.47460938 C606.79819455 537.20502946 606.79819455 537.20502946 603.125 547.4375 C602 549 602 549 600 550 C564.18807842 553.1109346 523.51028405 539.09999007 490.8671875 526.12890625 C487.68078979 524.87431642 484.48201684 523.65494743 481.28125 522.4375 C469.06991672 517.76299994 457.11683689 512.82683833 445.38037109 507.05761719 C438.75250921 503.80341239 432.04630678 500.82165651 425.25 497.9375 C415.59177533 493.81608132 406.36467065 489.1253462 397.13330078 484.13330078 C394.56997432 482.77155193 391.97358614 481.49040643 389.36401367 480.22021484 C369.66820818 470.62898959 350.63726745 459.49034921 332 448 C330.89011719 447.3198584 330.89011719 447.3198584 329.7578125 446.62597656 C303.58204266 430.54165483 278.19520307 412.92883424 254 394 C252.84916533 393.10780585 251.69811768 392.21588637 250.546875 391.32421875 C243.58276763 385.91206852 236.78481425 380.34057124 230.078125 374.61328125 C227.2729268 372.22117731 224.42536843 369.88544149 221.5625 367.5625 C211.93925495 359.71306064 202.56043435 351.62048057 193.47753906 343.15136719 C190.65634509 340.52114634 187.8084743 337.94168538 184.875 335.4375 C181.08191348 332.16456248 177.5836284 328.61493976 174.0703125 325.04882812 C171.43132054 322.3841793 168.74232301 319.8535909 165.875 317.4375 C161.98116782 314.11465747 158.67125426 310.38451431 155.29296875 306.546875 C153.06123326 304.06801377 150.75123754 301.7149283 148.375 299.375 C144.36864435 295.41001807 140.65722115 291.28580604 137 287 C136.08402605 285.94731352 135.16729612 284.89528457 134.25 283.84375 C127.53019703 276.11434292 121.10107301 268.22853651 115 260 C114.24783203 258.98679687 114.24783203 258.98679687 113.48046875 257.953125 C101.17271471 241.30321929 90.07015828 224.09184475 80 206 C79.32735107 204.794646 79.32735107 204.794646 78.64111328 203.56494141 C61.03040126 171.7236072 44.87142461 135.63285119 44.75 98.625 C44.74605225 97.57441406 44.74210449 96.52382813 44.73803711 95.44140625 C44.79225174 88.08162977 45.46257919 81.07863222 47.02050781 73.88525391 C48.20704307 68.21824038 48.37674703 63.14529558 46.01171875 57.7421875 C42.21902966 52.394384 38.04173813 47.44310912 33.73706055 42.50537109 C30.19154217 38.43207434 26.8026018 34.27201327 23.5 30 C19.69618538 25.08518391 15.7582995 20.32105714 11.6875 15.625 C0 2.13670132 0 2.13670132 0 0 Z " fill="#DCCBB2" transform="translate(818,726)"/>
<path d="M0 0 C6.89850544 1.24635097 13.52758866 2.92750277 20.20703125 5.046875 C21.13545334 5.34055969 22.06387543 5.63424438 23.02043152 5.93682861 C24.96508991 6.555571 26.90871184 7.17757975 28.85131836 7.80273438 C31.81666848 8.75133347 34.78974849 9.67243897 37.76367188 10.59375 C39.66199754 11.20144318 41.55980365 11.81076228 43.45703125 12.421875 C44.34042679 12.69086609 45.22382233 12.95985718 46.13398743 13.23699951 C51.89078996 15.13718569 54.44384549 17.10899968 58 22 C63.61253386 25.34593365 67.8355512 25.36426326 74 24 C75.65113301 23.4962198 77.29700271 22.97490428 78.9375 22.4375 C89.28390671 19.22215515 99.17606084 21.04245613 108.80224609 25.91162109 C116.59302229 30.18545387 123.95625124 35.22635702 131.30859375 40.2043457 C135.10927185 42.77246468 138.96045229 45.2199367 142.8815918 47.59960938 C151.71191604 52.97242638 159.86919486 59.01814917 167.98339844 65.41259766 C169.89042457 66.91374583 171.80650631 68.40229262 173.7265625 69.88671875 C182.74141912 76.87740332 191.47976575 84.17460868 200.0703125 91.6796875 C206.71869921 97.45071805 213.61333363 102.71036865 220.78613281 107.81420898 C226.7610034 112.07370145 232.61521354 116.47208645 238.4375 120.9375 C250.48928464 130.16856031 262.68232362 139.19430765 275.01879883 148.04125977 C287.22352915 156.80086557 298.93261781 165.82577497 310 176 C311.3292238 177.17134665 312.66238407 178.33824593 314 179.5 C321.64121042 186.17648846 329.07520544 192.9632105 336.1640625 200.2265625 C338.27213235 202.28817351 340.37871094 204.20808146 342.61328125 206.12109375 C347.65207584 210.48757393 352.34386925 215.19371398 357.0456543 219.9152832 C358.5599258 221.43491668 360.0794743 222.94912517 361.59960938 224.46289062 C366.38939198 229.24939778 371.07167848 234.08470169 375.47729492 239.23217773 C377.86237084 242.00119083 380.37543259 244.64727581 382.875 247.3125 C387.30017844 252.07474317 391.53335996 256.93748056 395.6015625 262.01171875 C397.39045137 264.24054609 399.19606241 266.44769621 401.0234375 268.64453125 C408.85842678 278.09953711 416.08584733 287.85467896 423 298 C423.48823242 298.71381836 423.97646484 299.42763672 424.47949219 300.16308594 C448.77541867 335.79817916 469.75575734 373.63785692 489.43798828 411.97314453 C491.67683366 416.31156357 493.96233915 420.62468931 496.25 424.9375 C500.03311548 432.08500381 503.6674721 439.2992952 507.26196289 446.54321289 C509.99263624 452.0305357 512.80766397 457.4646851 515.6875 462.875 C520.44955655 471.83073861 524.97131588 480.90234698 529.48638916 489.98403931 C533.25438666 497.56016419 537.06759871 505.1027273 541.0625 512.5625 C550.63112974 530.57651166 559.363927 548.92595956 567.0625 567.8125 C567.3281778 568.45988129 567.59385559 569.10726257 567.86758423 569.77426147 C570.7851849 576.91451047 573.47817763 584.1163309 575.87109375 591.44921875 C576.08677505 592.08664505 576.30245636 592.72407135 576.52467346 593.3808136 C578.19681542 598.6831119 578.88403407 603.97749246 577.30078125 609.390625 C574.53036241 614.60295452 571.80722965 618.06425678 566 620 C563.98280676 620.14711648 561.95984397 620.22107494 559.9375 620.25 C558.87402344 620.27578125 557.81054688 620.3015625 556.71484375 620.328125 C546.70068062 619.44359324 538.00410757 614.81212856 529.0916748 610.48059082 C481.29553611 587.29545729 431.8196443 568.19369587 382.1875 549.375 C380.46358032 548.72072021 380.46358032 548.72072021 378.70483398 548.05322266 C373.81428666 546.19831694 368.92352739 544.34422375 364.02490234 542.51074219 C318.57954352 525.49971549 273.44396401 506.45704553 232 481 C231.15324707 480.48066895 230.30649414 479.96133789 229.43408203 479.42626953 C212.50485891 468.98460031 196.36993207 457.63392322 181 445 C180.14792969 444.32066406 179.29585937 443.64132812 178.41796875 442.94140625 C171.54936055 437.42883229 165.08832816 431.56501278 158.66601562 425.54833984 C157.01432678 424.01331484 155.34656089 422.49815522 153.671875 420.98828125 C146.83799734 414.80933368 140.4790374 408.38212677 134.3515625 401.50439453 C132.97880598 399.9764094 131.58705304 398.46830007 130.1875 396.96484375 C124.97157211 391.35699884 119.98759682 385.62095363 115.18359375 379.65234375 C113.00602932 377.00732363 110.74681237 374.46787475 108.4375 371.9375 C104.06324256 367.12506133 100.0096009 362.11770878 96 357 C95.15938339 355.93968439 94.31820851 354.8798112 93.4765625 353.8203125 C42.04856203 288.94421233 -16.53347211 200.24527954 -8.77294922 113.4609375 C-6.48667878 94.17078272 1.28306404 76.20252036 13.8828125 61.48828125 C20.55839553 53.78129576 20.55839553 53.78129576 23.18798828 44.19848633 C22.48660382 35.99593169 17.10846014 28.61155412 12.625 22 C0 3.12149533 0 3.12149533 0 0 Z " fill="#461550" transform="translate(290,432)"/>
<path d="M0 0 C68.18177447 -0.86060336 133.51874305 6.7721389 199.02441406 26.12792969 C215.09004212 30.87060447 231.18989231 35.4125526 247.43066406 39.515625 C248.11016113 39.68915497 248.7896582 39.86268494 249.48974609 40.04147339 C258.16984984 42.31352332 258.16984984 42.31352332 267.04003906 43.4765625 C272.45911214 43.95762739 276.66796332 46.58155464 281.30566406 49.265625 C282.25973145 49.80243896 283.21379883 50.33925293 284.19677734 50.89233398 C287.22280139 52.60313503 290.23413896 54.33762483 293.24316406 56.078125 C294.18111816 56.61663086 295.11907227 57.15513672 296.08544922 57.70996094 C302.02107148 61.12095279 307.92832887 64.57826748 313.82324219 68.05908203 C316.23726847 69.48426745 318.65245722 70.90730849 321.06933594 72.32763672 C337.11622205 81.76033041 353.06941471 91.28943077 368.68310547 101.4296875 C371.36954651 103.15950344 374.07554213 104.85518573 376.78613281 106.546875 C378.58443693 107.68209046 380.38261861 108.8174999 382.18066406 109.953125 C382.99180664 110.45247559 383.80294922 110.95182617 384.63867188 111.46630859 C391.23539271 115.67293331 397.05615445 120.77397529 400.24316406 128.078125 C401.23715627 134.8742578 400.2231291 140.47368443 396.24316406 146.078125 C393.04460096 149.84070387 389.90886664 153.26264193 385.24316406 155.078125 C382.67754831 155.23518295 380.23007602 155.28303897 377.66870117 155.22924805 C376.90723628 155.22136733 376.14577139 155.21348661 375.3612318 155.20536709 C372.83076206 155.17665597 370.30076375 155.1333107 367.77050781 155.08984375 C365.98803782 155.06652551 364.20555634 155.04407052 362.42306519 155.02243042 C357.66061676 154.96189409 352.8984509 154.88843399 348.13623428 154.81200027 C344.19157828 154.75010545 340.24683746 154.6952595 336.30207729 154.64047527 C324.28208923 154.47334441 312.26259262 154.28119868 300.24316406 154.078125 C298.95325562 154.05665405 297.66334717 154.03518311 296.33435059 154.01306152 C283.30079414 153.79357175 270.27233949 153.47935649 257.24316406 153.078125 C256.23157227 153.04761047 255.21998047 153.01709595 254.17773438 152.98565674 C166.16289699 150.32668287 78.1711523 145.59697761 -80.75683594 132.078125 C-82.76285739 131.89208253 -84.76887948 131.70604679 -86.77490234 131.52001953 C-96.02302011 130.66035923 -105.26891422 129.77953577 -114.51303101 128.87788391 C-119.4502784 128.39681036 -124.38808436 127.92233356 -129.32666016 127.45507812 C-165.6863026 124.01470211 -201.95884234 120.0709551 -238.22684097 115.7833271 C-248.21380732 114.60290086 -258.20371578 113.4548025 -268.19824219 112.33984375 C-269.40983002 112.20442169 -270.62141785 112.06899963 -271.86972046 111.92947388 C-276.42887281 111.42046887 -280.98805601 110.91188963 -285.5480957 110.41088867 C-342.70522284 104.1297381 -342.70522284 104.1297381 -355.75683594 91.078125 C-359.75780147 85.67141482 -361.33104638 81.85380822 -360.75683594 75.078125 C-353.08228944 59.39535607 -332.43569888 52.85075396 -317.06933594 47.390625 C-313.64760563 46.23291176 -310.20893155 45.14158493 -306.75683594 44.078125 C-305.46132812 43.6754541 -305.46132812 43.6754541 -304.13964844 43.26464844 C-266.72583072 31.89139008 -227.36663816 25.85348019 -188.75683594 20.078125 C-188.08617599 19.97760834 -187.41551605 19.87709167 -186.72453308 19.77352905 C-175.42390766 18.07991769 -164.11990729 16.40999567 -152.81341934 14.75599289 C-150.37350552 14.39856051 -147.93384576 14.0394374 -145.49423218 13.67996216 C-100.17965654 7.0145234 -53.905507 0.58947383 -8.05700684 0.10351562 C-5.37126417 0.07386883 -2.6856577 0.03653216 0 0 Z " fill="#BB832A" transform="translate(2661.7568359375,786.921875)"/>
<path d="M0 0 C1.00804687 0.00161133 2.01609375 0.00322266 3.0546875 0.00488281 C13.13086767 0.16607641 22.56807964 1.93036961 32.3125 4.375 C32.99248047 4.5404834 33.67246094 4.7059668 34.37304688 4.87646484 C38.71739437 5.94085168 43.01744282 7.12774541 47.3125 8.375 C48.43140625 8.69726562 49.5503125 9.01953125 50.703125 9.3515625 C54.93108609 10.6236114 59.12286333 11.98256874 63.3125 13.375 C64.36937012 13.72385254 65.42624023 14.07270508 66.51513672 14.43212891 C113.30795334 30.02973445 157.39789956 52.89545177 198.3125 80.375 C199.15586914 80.94041504 199.99923828 81.50583008 200.86816406 82.08837891 C219.47020396 94.59275121 237.60794608 107.63061754 255.3125 121.375 C255.9204541 121.84647461 256.5284082 122.31794922 257.15478516 122.80371094 C266.04287419 129.70931747 274.79203495 136.78210091 283.50830078 143.90283203 C285.09523046 145.19771511 286.68598737 146.48790478 288.27734375 147.77734375 C293.97321633 152.40262648 299.56171034 157.13974095 305.1171875 161.93164062 C308.67673965 164.99550952 312.27942392 167.99100933 315.9375 170.9375 C320.39450264 174.55146255 324.62504622 178.37189833 328.8215332 182.28051758 C332.15406745 185.36615733 335.58407439 188.27675888 339.125 191.125 C342.87536422 194.14463423 346.3216253 197.26659662 349.66796875 200.72265625 C351.32091603 202.38345601 353.03501638 203.91122391 354.8125 205.4375 C359.48392471 209.46739443 363.96902625 213.68910393 368.46850586 217.90844727 C371.52481833 220.7737638 374.58462716 223.63354818 377.6796875 226.45703125 C384.05509836 232.27553634 390.25588353 238.221832 396.29321289 244.39257812 C399.08431234 247.22750372 401.91969096 249.93139565 404.9453125 252.515625 C410.28611697 257.13125367 415.23389789 262.14689757 420.21264648 267.14477539 C421.8717732 268.80926277 423.53618051 270.46833447 425.20117188 272.12695312 C430.20131381 277.12429287 435.09785887 282.15635447 439.69116211 287.53540039 C442.72781451 290.98084171 446.0352549 294.16053737 449.3125 297.375 C453.91536737 301.88968983 458.33553295 306.46696573 462.54394531 311.35253906 C465.657168 314.91271807 468.9311884 318.32116858 472.1875 321.75 C477.29453619 327.15190917 482.36552867 332.57225896 487.30859375 338.125 C488.7078531 339.69609821 490.11758452 341.25790465 491.53515625 342.8125 C495.39899467 347.0541065 499.14297106 351.34967334 502.75 355.8125 C505.82586588 359.61587503 509.00003166 363.27582652 512.3125 366.875 C516.34807392 371.26446271 520.15031434 375.78638699 523.8984375 380.421875 C530.75748659 388.81255641 537.88170605 396.99026558 545.16796875 405.01171875 C546.63770926 406.63137814 548.09821905 408.25944815 549.55078125 409.89453125 C554.61630431 415.58996391 559.86527094 421.04366943 565.3125 426.375 C561.93866613 426.375 561.24996049 425.89546905 558.56640625 424.0234375 C557.82197266 423.50910156 557.07753906 422.99476563 556.31054688 422.46484375 C555.50681641 421.89894531 554.70308594 421.33304688 553.875 420.75 C553.03388672 420.16605469 552.19277344 419.58210938 551.32617188 418.98046875 C548.64966918 417.11941647 545.98046704 415.24826379 543.3125 413.375 C541.63425267 412.20032352 539.95587012 411.02584021 538.27734375 409.8515625 C535.78374573 408.10604388 533.29072951 406.35972005 530.79931641 404.61108398 C524.45068462 400.15816426 518.06860557 395.75662521 511.66131592 391.38858032 C507.75937448 388.72846624 503.85913327 386.0660206 499.96630859 383.39257812 C488.20388668 375.31747659 476.37365824 367.34801117 464.5 359.4375 C463.58118042 358.82526581 462.66236084 358.21303162 461.71569824 357.58224487 C441.67710554 344.22580746 441.67710554 344.22580746 421.3125 331.375 C420.43932129 330.83955566 419.56614258 330.30411133 418.66650391 329.75244141 C408.32512747 323.44960001 397.8370265 317.46362361 387.125 311.8125 C385.74550171 311.07942627 385.74550171 311.07942627 384.33813477 310.33154297 C370.52950642 303.00887852 370.52950642 303.00887852 355.3125 302.375 C352.81979463 304.0784844 352.81979463 304.0784844 352.3125 307.375 C352.38160969 315.13723785 354.14835958 322.09386003 356.6875 329.375 C357.03329102 330.39247314 357.37908203 331.40994629 357.73535156 332.45825195 C360.95247753 341.73176533 364.627455 350.81268487 368.45458984 359.84960938 C380.11069455 387.58002946 380.11069455 387.58002946 376.4375 397.8125 C375.3125 399.375 375.3125 399.375 373.3125 400.375 C366.44223251 400.97181112 359.52290212 400.19762625 352.6875 399.5 C351.90060791 399.42160889 351.11371582 399.34321777 350.30297852 399.26245117 C346.29790818 398.82699945 342.31550899 398.2758373 338.3515625 397.5546875 C337.62404785 397.42562012 336.8965332 397.29655273 336.14697266 397.16357422 C333.66839647 396.09812292 333.37161784 394.79339052 332.3125 392.375 C329.75085516 390.04559108 329.75085516 390.04559108 326.625 387.75 C326.04903076 387.31397461 325.47306152 386.87794922 324.87963867 386.42871094 C320.73196065 383.3281224 316.46255444 380.45099122 312.125 377.625 C303.84317392 372.22649237 296.13930187 366.14321338 288.39160156 360.01318359 C285.46931587 357.7106311 282.51775949 355.44745806 279.5625 353.1875 C269.35033622 345.33985474 259.25686287 337.36165534 249.28076172 329.21606445 C244.93555258 325.67421986 240.54819087 322.19376561 236.125 318.75 C230.42369589 314.30464235 224.8922052 309.68579415 219.39453125 304.9921875 C216.56566987 302.58003476 213.69674878 300.22080002 210.8125 297.875 C205.13346859 293.24947007 199.54657178 288.52032956 193.96533203 283.77783203 C191.80793248 281.94675111 189.64561032 280.12153574 187.48339844 278.29614258 C184.75662804 275.99279145 182.03394871 273.68463495 179.3125 271.375 C178.73322754 270.88354492 178.15395508 270.39208984 177.55712891 269.88574219 C170.51729156 263.90543786 163.57094315 257.85199241 156.76171875 251.609375 C153.99020476 249.08097628 151.17122997 246.61316 148.33984375 244.15234375 C145.10571709 241.3170304 141.92227235 238.42573236 138.73046875 235.54296875 C136.7134831 233.73452443 134.67758404 231.9551266 132.625 230.1875 C128.00927845 226.16855861 123.56297102 221.96911387 119.09863281 217.78393555 C115.05175862 213.99137587 110.97764041 210.23207934 106.875 206.5 C102.89890128 202.86988042 99.0542172 199.15301498 95.28245544 195.31251526 C93.50476618 193.56410004 91.68346135 191.94600711 89.78149414 190.33569336 C84.2930915 185.56244598 79.19300025 180.39986888 74.05859375 175.25390625 C72.98835033 174.18433836 71.91795866 173.11491879 70.84742737 172.04563904 C68.61614087 169.81581776 66.38664943 167.5842216 64.15844727 165.35131836 C61.32218112 162.50935568 58.48144769 159.67190758 55.63934231 156.83578587 C53.43173667 154.63181774 51.22654779 152.42544381 49.02205086 150.21836662 C47.97634021 149.17199551 46.92990465 148.12634826 45.88268852 147.08148384 C40.67696869 141.88489506 35.54047129 136.66857788 30.76634216 131.06695557 C28.25370394 128.14279204 25.58242796 125.3664879 22.9375 122.5625 C18.28934467 117.59526907 13.86771464 112.51923967 9.61328125 107.20703125 C6.95339809 103.93298152 4.19983531 100.74997872 1.4375 97.5625 C-4.50199423 90.6735524 -10.1687317 83.60439008 -15.6875 76.375 C-16.15575195 75.7651123 -16.62400391 75.15522461 -17.10644531 74.52685547 C-29.36522942 58.48681724 -41.47178575 41.63241642 -38.6875 20.375 C-35.588212 11.74974745 -28.15247911 7.38434729 -20.34765625 3.48828125 C-13.48776982 0.61740367 -7.34423309 -0.01232254 0 0 Z " fill="#AE9E8A" transform="translate(1044.6875,875.625)"/>
<path d="M0 0 C-8.415 4.95 -8.415 4.95 -17 10 C-15.42675586 11.57324414 -13.67520203 11.416066 -11.49511719 11.70507812 C-10.52289215 11.83650711 -9.55066711 11.9679361 -8.54898071 12.10334778 C-7.47578583 12.24455551 -6.40259094 12.38576324 -5.296875 12.53125 C-2.97926538 12.84482319 -0.66172285 13.15889261 1.65576172 13.47338867 C3.50811432 13.72310928 3.50811432 13.72310928 5.39788818 13.97787476 C56.75753179 20.93929429 107.61493173 30.37475745 158.43366241 40.48941803 C161.11726873 41.02333103 163.80102239 41.55649863 166.48480225 42.08953857 C178.33823582 44.44445394 190.18921484 46.81135756 202.03771973 49.19094849 C205.91818299 49.97027374 209.79913158 50.74710423 213.68054199 51.521698 C248.69491056 58.51542439 248.69491056 58.51542439 265.87890625 62.7265625 C266.95269028 62.98537201 268.0264743 63.24418152 269.13279724 63.51083374 C281.95717397 66.76145144 292.90195368 70.55636078 300 82.3125 C301.38317087 87.41294258 302.45221012 94.09557976 300 99 C298.78828125 98.84015625 297.5765625 98.6803125 296.328125 98.515625 C278.23617677 96.5242396 259.83534981 97.61041612 242 101 C241.09991211 101.16628906 240.19982422 101.33257812 239.27246094 101.50390625 C217.38547554 105.60914144 195.58641243 111.16023184 174.31893921 117.7633667 C169.53759655 119.24382415 164.74218167 120.64292379 159.91851807 121.97851562 C148.26429908 125.22111457 136.82275649 128.97953269 125.38778687 132.91903687 C122.15842352 134.03154797 118.92677654 135.13720408 115.69458008 136.24145508 C106.18185092 139.49389063 96.67581466 142.76564786 87.17242432 146.04525757 C50.68407775 158.63376496 50.68407775 158.63376496 36.34912109 162.37890625 C33.81468856 163.04899525 31.292694 163.7574549 28.76953125 164.46875 C-46.99607526 185.4819199 -128.42154166 188.13007819 -206 177.625 C-207.06328018 177.48561508 -207.06328018 177.48561508 -208.14804077 177.34341431 C-221.07900621 175.61451104 -233.44596642 172.32950113 -245.0625 166.25 C-245.72040527 165.91129883 -246.37831055 165.57259766 -247.05615234 165.22363281 C-265.68078462 155.44849568 -285.48240272 142.23309072 -293.1484375 121.81640625 C-294.9070433 116.00009993 -294.7024577 111.89572949 -291.9375 106.375 C-283.10695807 92.16828791 -266.11540632 88.51806558 -250.89746094 84.76806641 C-238.69317409 81.74794881 -226.74205798 78.01957264 -214.76879883 74.19726562 C-212.06284883 73.33764401 -209.35507395 72.48730682 -206.64331055 71.64648438 C-194.60347088 67.90277784 -182.69390916 63.84285087 -170.8125 59.625 C-169.81298309 59.27117249 -168.81346619 58.91734497 -167.78366089 58.55279541 C-148.96049007 51.87956072 -130.25299317 44.9088028 -111.5625 37.875 C-110.87624165 37.61677208 -110.18998329 37.35854416 -109.48292923 37.09249115 C-104.03683562 35.04309683 -98.5910022 32.99301115 -93.14531136 30.94254684 C-69.22010267 21.93481977 -45.27071993 13.00533749 -21.04943848 4.81945801 C-19.4511748 4.27924633 -17.85373917 3.73657767 -16.25720215 3.19128418 C-14.08343473 2.45113745 -11.90593107 1.72346083 -9.7265625 1 C-8.49502441 0.5875 -7.26348633 0.175 -5.99462891 -0.25 C-3 -1 -3 -1 0 0 Z " fill="#9B2A2A" transform="translate(3221,405)"/>
<path d="M0 0 C2.69171207 1.65380764 5.25253278 3.46271138 7.8125 5.3125 C8.54460693 5.83593994 9.27671387 6.35937988 10.03100586 6.89868164 C23.50369173 16.6112152 36.42387365 27.05462517 49.26464844 37.58056641 C50.80987406 38.84448618 52.36152781 40.10053789 53.9140625 41.35546875 C65.25505403 50.53866101 76.19319721 60.19720761 87 70 C88.60394529 71.43774701 90.20811761 72.87524077 91.8125 74.3125 C93.54194479 75.87469215 95.2710748 77.43723282 97 79 C97.83442627 79.74757568 98.66885254 80.49515137 99.52856445 81.26538086 C110.10545866 90.8712158 120.1603957 101.00764377 130.24951172 111.11914062 C132.86477852 113.74014131 135.48456349 116.35657294 138.10567284 118.97172928 C140.15285261 121.01527254 142.19761674 123.06121963 144.24168777 125.10787201 C145.66876533 126.53592404 147.09782649 127.96199297 148.52694702 129.38800049 C153.02018631 133.89736267 157.39358049 138.45076634 161.53140259 143.28985596 C163.94305811 146.098167 166.47662625 148.79238655 169 151.5 C173.41617373 156.2653564 177.76709102 161.07031588 182 166 C182.92442929 167.07035558 183.84891358 168.14066365 184.7734375 169.2109375 C190.10680566 175.39709878 195.38027227 181.62208234 200.52734375 187.96484375 C202.44648445 190.32056622 204.37648425 192.66537764 206.31640625 195.00390625 C212.87496205 202.91480619 219.32746832 210.87056088 225.53027344 219.06494141 C227.28573799 221.37620586 229.05297651 223.67826971 230.8203125 225.98046875 C237.96106545 235.29464095 245.03091993 244.63727328 251.76953125 254.24707031 C253.10170765 256.14489304 254.44091821 258.03761639 255.78125 259.9296875 C260.01157918 265.90535296 264.2284972 271.89013472 268.41796875 277.89453125 C275.65122739 288.26089104 282.96854596 298.55818214 290.39550781 308.78662109 C292.00504319 311.00695703 293.60892787 313.23126042 295.2109375 315.45703125 C300.76412062 323.17039335 306.35265728 330.85525505 312 338.5 C317.65914571 346.16072253 323.2607515 353.86048837 328.8203125 361.59375 C330.83871473 364.39919445 332.87376511 367.1907004 334.9296875 369.96875 C344.76289442 383.31543119 353.86359083 397.15241166 363.0080719 410.97486877 C365.67820006 415.01062451 368.36111447 419.03747671 371.05357361 423.05836487 C374.84676723 428.72688219 378.61700889 434.39898497 382.125 440.25 C382.70121094 441.18392578 382.70121094 441.18392578 383.2890625 442.13671875 C386 446.63881138 386 446.63881138 386 450 C380.19989514 453.97721476 373.82241747 453.75312401 367 453 C358.49996792 451.25911366 350.83604284 447.2444366 343.0916748 443.48059082 C311.99744181 428.3972815 279.83530975 412.94510325 247 402 C245.64282227 399.86743164 245.64282227 399.86743164 244.25390625 397.09765625 C241.19001282 391.24823358 237.69512161 385.86047036 233.9375 380.4375 C233.28338135 379.48641357 232.6292627 378.53532715 231.95532227 377.55541992 C225.77428928 368.6028312 219.43176561 359.77354869 213 351 C212.4342627 350.2255957 211.86852539 349.45119141 211.28564453 348.65332031 C203.56712696 338.09068511 195.71544402 327.64035933 187.7421875 317.26904297 C174.49308697 300.01327779 161.23669233 282.74682739 148.5625 265.0625 C141.81282799 255.64486558 134.77251624 246.4563369 127.72558594 237.26025391 C125.58749371 234.45967979 123.47841203 231.63920427 121.375 228.8125 C112.73191963 217.26100666 103.81484422 205.92427596 94.68237305 194.7565918 C91.25724504 190.56418508 87.88978771 186.33285495 84.5625 182.0625 C79.88167285 176.05989601 75.05453824 170.18655449 70.19824219 164.32543945 C66.50022523 159.85201549 62.87503439 155.33187226 59.3125 150.75 C55.80731646 146.24333545 52.21216192 141.83774087 48.5 137.5 C44.28903241 132.57838973 40.2443775 127.55204524 36.265625 122.44140625 C32.73463159 117.91295708 29.13174652 113.44794135 25.5 109 C20.08023612 102.35377922 14.7434741 95.64930922 9.47167969 88.88525391 C7.8837968 86.85114116 6.28966237 84.82201586 4.6953125 82.79296875 C-3.17559796 72.75302296 -10.82074519 62.5659561 -18.34375 52.26318359 C-19.96201201 50.05190871 -21.5887382 47.84715495 -23.21875 45.64453125 C-23.97248901 44.6239563 -23.97248901 44.6239563 -24.74145508 43.58276367 C-25.67213468 42.32274008 -26.60415724 41.06370673 -27.5378418 39.8059082 C-32.8487567 32.59417956 -36.10235181 27.18101582 -35 18 C-32.8889142 9.8735914 -28.96751171 4.41643153 -22.0859375 -0.31640625 C-14.51658777 -4.64390301 -7.59882861 -3.94651063 0 0 Z " fill="#1F0E23" transform="translate(476,599)"/>
<path d="M0 0 C1.7775769 0.01317261 1.7775769 0.01317261 3.59106445 0.02661133 C14.66227481 0.27892328 24.69263537 2.38455276 35.25 5.5625 C37.14685547 6.08650391 37.14685547 6.08650391 39.08203125 6.62109375 C103.18638213 25.25846094 164.09930142 59.25116363 222.90527344 90.27197266 C252.63330551 105.95382071 282.54612677 121.03024522 313.26031494 134.67834473 C315.17076807 135.52729175 317.08028065 136.37832658 318.98974609 137.22949219 C340.8366797 146.93596235 363.00417769 155.81699569 385.25 164.5625 C385.92836914 164.82929565 386.60673828 165.09609131 387.30566406 165.37097168 C400.93530313 170.72608642 414.62034862 175.85241935 428.47314453 180.6003418 C431.28776983 181.57558694 434.09601842 182.56812579 436.90354919 183.56358337 C446.76301109 187.05847342 456.65365112 190.45811491 466.55517578 193.83178711 C469.27539059 194.75865139 471.99515147 195.68683808 474.71484375 196.61523438 C476.47653669 197.2162215 478.23825453 197.81713562 480 198.41796875 C481.19556519 198.82585884 481.19556519 198.82585884 482.4152832 199.24198914 C487.68625569 201.03753379 492.96527844 202.80784409 498.25 204.5625 C497.92 205.2225 497.59 205.8825 497.25 206.5625 C494.52734375 206.9765625 494.52734375 206.9765625 491.1875 207.1875 C489.53041016 207.29964844 489.53041016 207.29964844 487.83984375 207.4140625 C486.55787109 207.48753906 486.55787109 207.48753906 485.25 207.5625 C492.89095441 224.75464741 508.73223745 238.13282183 523.25 249.5625 C532.44531803 257.0098153 541.5998651 264.48252465 550.25 272.5625 C550.90355469 273.14 551.55710937 273.7175 552.23046875 274.3125 C557.56497121 279.22615685 561.62867026 284.99313751 562.625 292.3203125 C562.72670919 296.68109385 562.72292893 298.85310661 560.25 302.5625 C560.270625 301.94503906 560.29125 301.32757812 560.3125 300.69140625 C560.15340955 294.15875475 558.58267446 290.3160413 553.9375 285.703125 C540.01933497 274.61714471 520.88304726 270.19813596 504.25 264.5625 C503.5654071 264.33006592 502.88081421 264.09763184 502.17547607 263.8581543 C485.2702674 258.12153844 468.30309666 252.57864649 451.30322266 247.12963867 C443.38754893 244.58891188 435.50035123 241.97521335 427.625 239.3125 C419.53884113 236.58492199 411.41427028 234.13413632 403.19213867 231.8527832 C394.30118622 229.35712155 385.57853211 226.39293541 376.83203125 223.4375 C372.27990568 221.90047828 367.71532706 220.41849314 363.125 219 C362.49287598 218.80462646 361.86075195 218.60925293 361.20947266 218.40795898 C359.904791 218.00486391 358.6001034 217.60178806 357.29541016 217.19873047 C352.56423066 215.72708404 347.84647299 214.21263173 343.12695312 212.70410156 C337.50570322 210.90972659 331.87978154 209.13121113 326.24824524 207.36943054 C306.44853649 201.17358795 286.78529898 194.79413057 267.29931641 187.66503906 C263.42108647 186.26279035 259.52334972 184.92222169 255.62158203 183.5871582 C175.62144599 156.18575579 95.23915716 120.8054752 26.03955078 71.82568359 C24.24098208 70.55613456 22.43209014 69.30252087 20.62109375 68.05078125 C12.41411834 62.33754547 4.78235791 56.13349117 -2.75 49.5625 C-3.5853125 48.86253906 -4.420625 48.16257812 -5.28125 47.44140625 C-14.04768184 39.98093257 -24.06161551 29.56288807 -26.2578125 17.85546875 C-26.44251741 13.74886302 -25.93119001 10.98790263 -24.3125 7.1875 C-17.54585677 0.25581669 -9.24382936 -0.11926246 0 0 Z " fill="#8E5A2A" transform="translate(1777.75,969.4375)"/>
<path d="M0 0 C8.93880499 0.70479718 17.80618576 1.85203968 26.6875 3.0625 C28.08265307 3.25086757 29.47783521 3.43901999 30.87304688 3.62695312 C34.24898857 4.08253003 37.62462335 4.54025868 41 5 C38.02206266 6.98529156 35.49245564 7.9962117 32.12890625 9.1796875 C30.32776367 9.82309082 30.32776367 9.82309082 28.49023438 10.47949219 C27.18099455 10.94467543 25.87174963 11.40984435 24.5625 11.875 C16.34373518 14.80070433 8.21599601 17.80226231 0.27734375 21.4296875 C-0.33966904 21.70863861 -0.95668182 21.98758972 -1.59239197 22.2749939 C-4.52632138 23.60517026 -7.43908373 24.96447737 -10.33374023 26.37841797 C-18.63258345 30.18490439 -25.0349677 30.33317744 -34 29 C-35.62483668 28.81108989 -37.24980736 28.62332284 -38.875 28.4375 C-39.90625 28.293125 -40.9375 28.14875 -42 28 C-27.56839486 20.64092337 -12.40026393 14.23445999 2.625 8.1875 C3.84799805 7.6912915 3.84799805 7.6912915 5.09570312 7.18505859 C8.19705543 5.95861473 10.63395823 5 14 5 C14 4.34 14 3.68 14 3 C12.98679687 2.92652344 12.98679687 2.92652344 11.953125 2.8515625 C11.06109375 2.77679687 10.1690625 2.70203125 9.25 2.625 C8.36828125 2.55539062 7.4865625 2.48578125 6.578125 2.4140625 C3.99123446 1.9985922 2.29320804 1.21480352 0 0 Z " fill="#8E5A2A" transform="translate(2069,743)"/>
<path d="M0 0 C6.23524956 0.60983479 12.24718 1.59553861 18.375 2.875 C24.61503154 4.17408028 30.72451783 5.11895771 37.08984375 5.54296875 C56.48906014 6.88634325 56.48906014 6.88634325 60.4921875 10.59765625 C65 16.81394573 65 16.81394573 65 20 C53.83481022 19.45215253 42.75792061 18.52541207 31.6796875 17.02026367 C29.9683963 16.79735753 28.25425612 16.59537997 26.53808594 16.41381836 C10.70764125 14.72369794 10.70764125 14.72369794 5.12228394 8.50263977 C0 2.00798712 0 2.00798712 0 0 Z " fill="#8F5B2B" transform="translate(807,713)"/>
<path d="M0 0 C8.67869657 1.13115596 16.75640299 3.71673584 25.04296875 6.41015625 C30.51499408 8.18536179 36.03225882 9.79005744 41.56884766 11.35083008 C48.78264302 13.42114509 51.61207643 15.3170253 55.75 21.625 C56.16121094 22.23601562 56.57242188 22.84703125 56.99609375 23.4765625 C58.00551256 24.97895328 59.0038647 26.48876909 60 28 C57.0059725 29.49701375 54.95526492 28.1817062 51.93127441 27.18254089 C51.09801636 26.89929459 50.2647583 26.61604828 49.40625 26.32421875 C48.11430725 25.89638847 48.11430725 25.89638847 46.79626465 25.45991516 C44.02844287 24.542814 41.26397866 23.61611418 38.5 22.6875 C35.76443493 21.77009078 33.02818956 20.85504722 30.28942871 19.94721985 C28.58447915 19.38196279 26.88129823 18.81133099 25.18029785 18.23429871 C20.18302319 16.57605504 15.27947048 15.39002928 10.07995605 14.54304504 C8 14 8 14 5.625 11.8125 C5.08875 10.884375 4.5525 9.95625 4 9 C3.63132812 8.401875 3.26265625 7.80375 2.8828125 7.1875 C0 2.41594828 0 2.41594828 0 0 Z " fill="#8C582A" transform="translate(282,419)"/>
<path d="M0 0 C0.46204245 2.97863364 0.92038521 5.95772886 1.375 8.9375 C1.51220459 9.83380127 1.64940918 10.73010254 1.79077148 11.65356445 C2.80196912 18.37847355 3.6394226 25.10857923 4.26513672 31.88061523 C4.4425229 33.59541784 4.71208896 35.30025853 5 37 C5.66 37.33 6.32 37.66 7 38 C-8.47395469 43.87855624 -24.01486002 49.48746992 -39.7906189 54.50692749 C-41.3444756 55.00154604 -42.89724141 55.49960509 -44.44888306 56.00112915 C-46.63184744 56.70461443 -48.81882298 57.39365189 -51.0078125 58.078125 C-52.88944092 58.67222168 -52.88944092 58.67222168 -54.80908203 59.27832031 C-57.93512607 59.98532767 -59.06130688 59.88966181 -62 59 C-60.83130371 58.63237549 -59.66260742 58.26475098 -58.45849609 57.88598633 C-54.05546042 56.50018 -49.65355424 55.11081436 -45.25195312 53.72045898 C-43.35934812 53.12315773 -41.46645209 52.52677768 -39.57324219 51.93139648 C-29.47856579 48.75611335 -19.42733209 45.54122999 -9.50634766 41.85424805 C-7 41 -7 41 -5 41 C-5.17390259 40.10861328 -5.17390259 40.10861328 -5.35131836 39.19921875 C-5.88279439 36.46667234 -6.41017152 33.7333497 -6.9375 31 C-7.21110352 29.59814453 -7.21110352 29.59814453 -7.49023438 28.16796875 C-8.84016899 21.14830875 -10.17466157 14.17834018 -10.0625 7 C-10.05347656 6.236875 -10.04445313 5.47375 -10.03515625 4.6875 C-10.02355469 4.130625 -10.01195313 3.57375 -10 3 C-8.70990357 2.49596232 -7.41786211 1.99690074 -6.125 1.5 C-5.40570312 1.2215625 -4.68640625 0.943125 -3.9453125 0.65625 C-2 0 -2 0 0 0 Z " fill="#8F5A2A" transform="translate(2653,563)"/>
<path d="M0 0 C2.80289663 1.52807228 5.13025995 3.31589245 7.55078125 5.390625 C6.78894531 5.9475 6.02710938 6.504375 5.2421875 7.078125 C-4.89116259 14.56744242 -13.58670059 21.62242931 -20.44921875 32.390625 C-24.21409917 30.66907712 -26.59985772 28.39828386 -29.44921875 25.390625 C-8.49853152 -2.11446717 -8.49853152 -2.11446717 0 0 Z " fill="#8E5A2A" transform="translate(1545.44921875,850.609375)"/>
<path d="M0 0 C3.003936 1.42421757 5.70861232 3.07364166 8.45703125 4.94140625 C9.31401611 5.52027588 10.17100098 6.09914551 11.05395508 6.69555664 C11.9642749 7.31164795 12.87459473 7.92773926 13.8125 8.5625 C26.32173701 16.94704091 39.02950472 24.53909631 52.25 31.75 C53.74140503 32.56513062 53.74140503 32.56513062 55.26293945 33.39672852 C61.72411821 36.88564701 68.27537635 40.05118169 75 43 C71.01118992 44.32960336 69.8814778 43.29179104 66.13671875 41.4921875 C64.95062012 40.92435547 63.76452148 40.35652344 62.54248047 39.77148438 C61.25687598 39.14056642 59.97189608 38.50837437 58.6875 37.875 C58.03751038 37.55732666 57.38752075 37.23965332 56.71783447 36.91235352 C9.04621726 13.56932589 9.04621726 13.56932589 0 0 Z " fill="#9E2B2A" transform="translate(2749,618)"/>
<path d="M0 0 C4.55133888 1.57837405 6.85153144 5.20476284 9.6875 8.875 C10.21279297 9.54321777 10.73808594 10.21143555 11.27929688 10.89990234 C15.28305211 16.01405507 19.20074328 21.19191421 23.0625 26.4140625 C24.99021592 28.98694141 26.97859208 31.50031253 29 34 C28.67 34.66 28.34 35.32 28 36 C5.54875947 11.76765896 5.54875947 11.76765896 0 0 Z " fill="#8F5B2A" transform="translate(54,34)"/>
</svg>
